<svg width="318" height="298" viewBox="0 0 318 298" fill="none" xmlns="http://www.w3.org/2000/svg">
<path d="M316.774 143.875H1.22534V1.2251H316.774V298" stroke="#BBB69B" stroke-width="1.25" stroke-miterlimit="10"/>
<path d="M1.22534 72.5406H316.774" stroke="#BBB69B" stroke-width="1.25" stroke-miterlimit="10"/>
<path d="M316.774 215.21H1.22534" stroke="#BBB69B" stroke-width="1.25" stroke-miterlimit="10"/>
<path d="M316.774 285.748H1.22534" stroke="#BBB69B" stroke-width="1.25" stroke-miterlimit="10"/>
<path d="M45.5952 1.20581V72.5407" stroke="#BBB69B" stroke-width="1.25" stroke-miterlimit="10"/>
<path d="M84.3242 1.20581V71.9961" stroke="#BBB69B" stroke-width="1.25" stroke-miterlimit="10"/>
<path d="M161.82 143.875V285.748" stroke="#BBB69B" stroke-width="1.25" stroke-miterlimit="10"/>
<path d="M239.298 72.5406V285.748" stroke="#BBB69B" stroke-width="1.25" stroke-miterlimit="10"/>
<path d="M123.072 1.2251V143.875" stroke="#BBB69B" stroke-width="1.25" stroke-miterlimit="10"/>
<path d="M161.82 1.20581V142.767" stroke="#BBB69B" stroke-width="1.25" stroke-miterlimit="10"/>
<path d="M36.4529 21.6846V55.5626H29.5669V33.5867L26.5517 55.2709H22.1751C22.1751 55.2709 19.1404 33.8783 19.1015 33.7032V55.5626H12.2155V21.6846H22.7782L24.5481 38.1763L26.2017 21.6846H36.4529Z" fill="#BBB69B"/>
<path d="M75.4153 55.5821H68.004L67.1092 49.1449H61.9737L61.0595 55.5626H53.765L59.8727 21.665H69.1903L75.4153 55.5821ZM66.2141 42.4158L64.5415 30.2998L62.8489 42.3963L66.2141 42.4158Z" fill="#BBB69B"/>
<path d="M111.771 21.704V28.6273H107.433V55.5821H100.294V28.6273H95.9366V21.704H111.771Z" fill="#BBB69B"/>
<path d="M152.911 55.5818H145.403L145.228 54.8623C144.703 52.373 142.563 41.2488 142.427 40.7626C142.427 40.7626 142.427 41.3461 142.427 41.385C142.427 41.4239 142.427 55.5818 142.427 55.5818H135.268C135.268 55.5818 135.268 23.9012 135.268 22.2481V21.6843H142.096C143.492 21.6453 144.889 21.7626 146.259 22.0342C147.955 22.4826 149.444 23.5004 150.478 24.9168C151.513 26.3332 152.028 28.062 151.939 29.8134C152.028 31.3265 151.726 32.8372 151.061 34.1996C150.397 35.5621 149.393 36.7305 148.146 37.5926L152.853 55.368L152.911 55.5818ZM144.703 31.4083C144.703 29.2106 144.002 27.927 142.621 27.927H142.505C142.505 29.1911 142.505 35.0839 142.505 35.0839H142.621C144.216 35.0839 144.722 33.1391 144.722 31.4083H144.703Z" fill="#BBB69B"/>
<path d="M161.82 80.4366V134.891" stroke="#BBB69B" stroke-width="1.25" stroke-miterlimit="10"/>
<path d="M200.549 71.9962V143.876" stroke="#BBB69B" stroke-width="1.25" stroke-miterlimit="10"/>
<path d="M278.026 71.9962V215.444" stroke="#BBB69B" stroke-width="1.25" stroke-miterlimit="10"/>
<path d="M191.776 125.011H184.365L183.47 118.593H178.335L177.421 124.992H170.127L176.234 91.1134H185.552L191.776 125.011ZM182.576 111.845L180.903 99.7484L179.21 111.845H182.576Z" fill="#BBB69B"/>
<path d="M229.046 125.011H221.538L221.382 124.311C220.837 121.802 218.717 110.697 218.581 110.211V110.834V125.011H211.442C211.442 125.011 211.442 93.35 211.442 91.6775V91.1329C213.543 91.1329 216.189 91.1329 218.27 91.1329C219.659 91.0769 221.05 91.188 222.413 91.4636C224.111 91.9114 225.603 92.9284 226.64 94.3444C227.678 95.7604 228.198 97.4895 228.113 99.2427C228.198 100.755 227.894 102.264 227.23 103.626C226.566 104.988 225.564 106.157 224.319 107.022L229.027 124.778V124.894L229.046 125.011ZM220.857 100.837C220.857 98.6592 220.157 97.3561 218.776 97.3561H218.64C218.64 98.6397 218.64 104.513 218.64 104.513H218.737C220.351 104.513 220.857 102.588 220.857 100.837Z" fill="#BBB69B"/>
<path d="M264.663 117.115C264.651 118.77 264.172 120.388 263.282 121.783C262.539 122.918 261.522 123.848 260.325 124.486C259.36 125.003 258.298 125.315 257.207 125.402C256.116 125.489 255.018 125.349 253.983 124.992C251.952 124.256 250.294 122.746 249.374 120.791C248.715 119.049 248.455 117.181 248.615 115.326C248.615 114.062 248.615 99.3203 248.615 98.6202C248.648 96.8299 249.266 95.0999 250.377 93.6948C251.487 92.2898 253.027 91.2873 254.762 90.841C255.024 90.7818 255.291 90.7429 255.559 90.7245C256.379 90.6176 257.21 90.6176 258.03 90.7245C260.132 91.1164 261.993 92.3265 263.204 94.0889C263.748 94.8723 264.144 95.749 264.371 96.6754C264.625 97.9555 264.73 99.2608 264.682 100.565V103.521H257.777V100.565C257.777 100.157 257.777 99.787 257.777 99.5342C257.777 98.9119 257.777 98.0756 257.057 97.8228C256.845 97.749 256.615 97.7392 256.397 97.7945C256.18 97.8498 255.983 97.9679 255.832 98.134C255.491 98.7215 255.353 99.4054 255.442 100.079C255.442 102.685 255.442 113.42 255.442 116.007C255.442 116.493 255.443 117.776 256.688 117.776C257.271 117.776 257.738 117.29 257.738 116.318C257.738 114.723 257.738 111.183 257.738 111.183H264.682V112.253C264.682 112.253 264.721 115.929 264.663 117.115Z" fill="#BBB69B"/>
<path d="M306.329 91.1329V125.011H299.209V111.398H296.252V125.011H289.133V91.1329H296.252V104.202H299.209V91.1329H306.329Z" fill="#BBB69B"/>
<path d="M307.087 163.635L300.688 180.379L300.552 197.513H293.588V180.379L287.11 163.635H294.152L297.05 173.767L299.773 163.635H307.087Z" fill="#BBB69B"/>
<path d="M138.887 124.253V90.3743H146.025V124.253H138.887Z" fill="#BBB69B"/>
<path d="M68.4902 191.62C68.4902 199.749 62.985 205.234 52.6171 205.234H19.5489V156.128H51.8587C62.0515 156.128 67.7313 161.729 67.7313 169.741C67.7839 171.965 67.1743 174.155 65.9794 176.032C64.7845 177.909 63.0582 179.388 61.0205 180.282C63.293 181.156 65.235 182.72 66.5745 184.753C67.9139 186.786 68.5838 189.187 68.4902 191.62ZM32.6595 174.37H51.4114C51.7947 174.408 52.1815 174.361 52.545 174.234C52.9085 174.107 53.2396 173.902 53.5157 173.633C53.7917 173.365 54.0059 173.039 54.143 172.679C54.2801 172.319 54.337 171.934 54.3097 171.55C54.34 171.164 54.2854 170.776 54.1497 170.414C54.0139 170.052 53.8001 169.724 53.5237 169.453C53.2474 169.182 52.9152 168.976 52.5502 168.847C52.1852 168.719 51.7964 168.672 51.4114 168.71H32.6595V174.37ZM55.1265 189.733C55.1594 189.334 55.1081 188.932 54.9755 188.554C54.8429 188.175 54.6319 187.829 54.3567 187.538C54.0816 187.246 53.748 187.016 53.3779 186.861C53.0079 186.707 52.6096 186.632 52.2087 186.641H32.6595V192.845H52.2087C52.6105 192.852 53.0093 192.774 53.3794 192.618C53.7494 192.461 54.0828 192.229 54.3577 191.936C54.6325 191.643 54.8426 191.296 54.975 190.916C55.1075 190.537 55.1592 190.134 55.1265 189.733Z" fill="#BBB69B"/>
<path d="M147.426 156.205V186.428C147.426 198.096 137.7 206.537 123.053 206.537C108.406 206.537 98.6991 198.077 98.6991 186.233V156.205H111.829V184.872C111.829 190.239 116.225 193.234 123.053 193.234C129.881 193.234 134.296 190.239 134.296 184.872V156.205H147.426Z" fill="#BBB69B"/>
<path d="M193.118 205.331V156.205H206.268V205.331H193.118Z" fill="#BBB69B"/>
<path d="M224.728 261.321V274.293H179.444V225.168H192.574V261.321H224.728Z" fill="#BBB69B"/>
<path d="M303.975 249.75C303.975 263.091 294.074 274.293 282.403 274.293H254.081V225.168H281.469C291.195 225.168 303.975 233.55 303.975 249.75ZM290.942 249.75C290.942 242.535 287.441 237.692 280.341 237.692H267.269V261.808H280.38C287.441 261.788 290.942 256.946 290.942 249.731V249.75Z" fill="#BBB69B"/>
<path d="M1.22534 298V143.875" stroke="#BBB69B" stroke-width="1.25" stroke-miterlimit="10"/>
<path d="M1.22534 215.21L161.82 285.748" stroke="#BBB69B" stroke-width="1.25" stroke-miterlimit="10"/>
<path d="M161.82 215.444L1.22534 285.748" stroke="#BBB69B" stroke-width="1.25" stroke-miterlimit="10"/>
<path d="M278.026 142.767L239.298 214.821" stroke="#BBB69B" stroke-width="1.25" stroke-miterlimit="10"/>
<path d="M239.298 142.767L278.026 215.444" stroke="#BBB69B" stroke-width="1.25" stroke-miterlimit="10"/>
<path d="M1.22534 71.9962L123.072 143.876" stroke="#BBB69B" stroke-width="1.25" stroke-miterlimit="10"/>
<path d="M123.072 72.5406L1.22534 142.767" stroke="#BBB69B" stroke-width="1.25" stroke-miterlimit="10"/>
<path d="M316.774 1.2251L161.82 71.996" stroke="#BBB69B" stroke-width="1.25" stroke-miterlimit="10"/>
<path d="M161.82 1.20581L316.774 72.5407" stroke="#BBB69B" stroke-width="1.25" stroke-miterlimit="10"/>
</svg>
