<svg width="20" height="19" viewBox="0 0 20 19" fill="none" xmlns="http://www.w3.org/2000/svg">
<path fill-rule="evenodd" clip-rule="evenodd" d="M6.56107 0.057C7.57412 0.0103636 7.89712 0 10.4777 0C13.0582 0 13.3812 0.0112273 14.3934 0.057C15.4056 0.102773 16.0965 0.264273 16.701 0.498318C17.3341 0.737545 17.9084 1.1115 18.3834 1.59514C18.867 2.06927 19.2401 2.64273 19.4785 3.27664C19.7134 3.88118 19.874 4.57209 19.9207 5.58255C19.9673 6.59732 19.9777 6.92032 19.9777 9.5C19.9777 12.0805 19.9664 12.4035 19.9207 13.4166C19.8749 14.427 19.7134 15.118 19.4785 15.7225C19.2401 16.3565 18.8664 16.9309 18.3834 17.4057C17.9084 17.8894 17.3341 18.2625 16.701 18.5008C16.0965 18.7357 15.4056 18.8964 14.3951 18.943C13.3812 18.9896 13.0582 19 10.4777 19C7.89712 19 7.57412 18.9888 6.56107 18.943C5.55062 18.8972 4.85971 18.7357 4.25516 18.5008C3.62118 18.2624 3.04678 17.8887 2.57193 17.4057C2.08863 16.9313 1.71461 16.3572 1.47598 15.7234C1.24193 15.1188 1.0813 14.4279 1.03466 13.4175C0.988025 12.4027 0.977661 12.0797 0.977661 9.5C0.977661 6.91945 0.988888 6.59645 1.03466 5.58427C1.08043 4.57209 1.24193 3.88118 1.47598 3.27664C1.71497 2.6428 2.08926 2.06868 2.5728 1.59427C3.04697 1.11107 3.6208 0.737065 4.2543 0.498318C4.85884 0.264273 5.54975 0.103636 6.56021 0.057H6.56107ZM14.3165 1.767C13.3147 1.72123 13.0142 1.71173 10.4777 1.71173C7.94116 1.71173 7.64062 1.72123 6.6388 1.767C5.71212 1.80932 5.20948 1.96391 4.87439 2.09432C4.43134 2.26705 4.11439 2.47173 3.78189 2.80423C3.4667 3.11086 3.22413 3.48415 3.07198 3.89673C2.94157 4.23182 2.78698 4.73445 2.74466 5.66114C2.69889 6.66295 2.68939 6.9635 2.68939 9.5C2.68939 12.0365 2.69889 12.337 2.74466 13.3389C2.78698 14.2655 2.94157 14.7682 3.07198 15.1033C3.22398 15.5152 3.46666 15.8892 3.78189 16.1958C4.08848 16.511 4.46243 16.7537 4.87439 16.9057C5.20948 17.0361 5.71212 17.1907 6.6388 17.233C7.64062 17.2788 7.9403 17.2883 10.4777 17.2883C13.015 17.2883 13.3147 17.2788 14.3165 17.233C15.2432 17.1907 15.7458 17.0361 16.0809 16.9057C16.524 16.733 16.8409 16.5283 17.1734 16.1958C17.4887 15.8892 17.7313 15.5152 17.8833 15.1033C18.0138 14.7682 18.1683 14.2655 18.2107 13.3389C18.2564 12.337 18.2659 12.0365 18.2659 9.5C18.2659 6.9635 18.2564 6.66295 18.2107 5.66114C18.1683 4.73445 18.0138 4.23182 17.8833 3.89673C17.7106 3.45368 17.5059 3.13673 17.1734 2.80423C16.8668 2.48906 16.4935 2.2465 16.0809 2.09432C15.7458 1.96391 15.2432 1.80932 14.3165 1.767ZM9.26425 12.4286C9.94191 12.7107 10.6965 12.7488 11.3991 12.5363C12.1017 12.3239 12.7088 11.8741 13.1166 11.2638C13.5244 10.6534 13.7077 9.92048 13.6352 9.19005C13.5626 8.45961 13.2387 7.77702 12.7188 7.25886C12.3874 6.92764 11.9866 6.67402 11.5454 6.51626C11.1042 6.35851 10.6335 6.30054 10.1672 6.34653C9.70087 6.39252 9.25057 6.54133 8.84867 6.78225C8.44678 7.02316 8.1033 7.35019 7.84297 7.73978C7.58263 8.12937 7.41192 8.57184 7.34311 9.03533C7.2743 9.49882 7.30911 9.9718 7.44504 10.4202C7.58096 10.8686 7.81462 11.2813 8.12919 11.6286C8.44376 11.9759 8.83142 12.2491 9.26425 12.4286ZM7.02484 6.04718C7.47827 5.59375 8.01657 5.23407 8.60901 4.98868C9.20144 4.74328 9.83641 4.61698 10.4777 4.61698C11.1189 4.61698 11.7539 4.74328 12.3463 4.98868C12.9387 5.23407 13.477 5.59375 13.9305 6.04718C14.3839 6.50061 14.7436 7.03891 14.989 7.63135C15.2344 8.22378 15.3607 8.85875 15.3607 9.5C15.3607 10.1412 15.2344 10.7762 14.989 11.3687C14.7436 11.9611 14.3839 12.4994 13.9305 12.9528C13.0147 13.8686 11.7727 14.383 10.4777 14.383C9.1826 14.383 7.94059 13.8686 7.02484 12.9528C6.1091 12.0371 5.59464 10.7951 5.59464 9.5C5.59464 8.20494 6.1091 6.96293 7.02484 6.04718ZM16.4437 5.34418C16.556 5.23819 16.646 5.11072 16.7082 4.96934C16.7704 4.82796 16.8036 4.67553 16.8059 4.52108C16.8081 4.36662 16.7794 4.21329 16.7213 4.07015C16.6632 3.92702 16.577 3.79699 16.4678 3.68776C16.3586 3.57854 16.2286 3.49234 16.0854 3.43427C15.9423 3.37619 15.7889 3.34743 15.6345 3.34969C15.48 3.35194 15.3276 3.38516 15.1862 3.44737C15.0448 3.50959 14.9174 3.59955 14.8114 3.71191C14.6052 3.93043 14.4924 4.2207 14.4968 4.52108C14.5011 4.82146 14.6224 5.1083 14.8348 5.32073C15.0473 5.53315 15.3341 5.65442 15.6345 5.6588C15.9349 5.66318 16.2251 5.55032 16.4437 5.34418Z" fill="#555433"/>
</svg>
