<svg width="21" height="20" viewBox="0 0 21 20" fill="none" xmlns="http://www.w3.org/2000/svg">
<path d="M0.977539 10C0.977539 14.2692 3.65337 17.9142 7.41921 19.3483C7.32754 18.5675 7.23004 17.28 7.44004 16.3767C7.62087 15.6 8.60754 11.4283 8.60754 11.4283C8.60754 11.4283 8.31004 10.8325 8.31004 9.95C8.31004 8.56667 9.11171 7.53333 10.1109 7.53333C10.9609 7.53333 11.3709 8.17083 11.3709 8.935C11.3709 9.78917 10.8267 11.0658 10.5459 12.25C10.3117 13.2408 11.0434 14.0492 12.02 14.0492C13.7892 14.0492 15.15 12.1833 15.15 9.49C15.15 7.10583 13.4367 5.44 10.9909 5.44C8.15921 5.44 6.49671 7.56417 6.49671 9.76C6.49671 10.6158 6.82587 11.5325 7.23754 12.0317C7.27264 12.0694 7.29743 12.1155 7.30955 12.1655C7.32166 12.2156 7.32068 12.2679 7.30671 12.3175C7.23087 12.6325 7.06254 13.3083 7.03004 13.4467C6.98587 13.6283 6.88587 13.6675 6.69671 13.5792C5.45337 13.0008 4.67671 11.1833 4.67671 9.72333C4.67671 6.5825 6.95754 3.69917 11.2534 3.69917C14.7067 3.69917 17.3909 6.16 17.3909 9.44833C17.3909 12.8792 15.2284 15.6408 12.225 15.6408C11.2159 15.6408 10.2684 15.1158 9.94337 14.4967C9.94337 14.4967 9.44421 16.3983 9.32337 16.8633C9.08837 17.7667 8.43671 18.91 8.03254 19.5592C8.96421 19.8458 9.95254 20 10.9775 20C16.5 20 20.9775 15.5225 20.9775 10C20.9775 4.4775 16.5 0 10.9775 0C5.45504 0 0.977539 4.4775 0.977539 10Z" fill="#555433"/>
</svg>
