<svg width="18" height="19" viewBox="0 0 18 19" fill="none" xmlns="http://www.w3.org/2000/svg">
<path d="M17.5877 7.7916C15.9549 7.79551 14.3622 7.28587 13.0345 6.33469V12.9686C13.0341 14.1972 12.6589 15.3965 11.959 16.4059C11.2592 17.4154 10.2681 18.187 9.11836 18.6175C7.96857 19.048 6.71487 19.1169 5.52488 18.8151C4.3349 18.5132 3.26536 17.8549 2.45927 16.9282C1.65318 16.0015 1.14897 14.8506 1.01406 13.6294C0.879148 12.4082 1.11996 11.1749 1.70431 10.0943C2.28865 9.01378 3.18867 8.13754 4.28402 7.58276C5.37937 7.02799 6.61783 6.82113 7.83382 6.98984V10.3264C7.27738 10.1513 6.67987 10.1565 6.12661 10.3415C5.57335 10.5265 5.09263 10.8817 4.75311 11.3564C4.41359 11.8312 4.23262 12.4011 4.23606 12.9849C4.23949 13.5687 4.42715 14.1365 4.77224 14.6072C5.11732 15.0779 5.60219 15.4274 6.15759 15.6059C6.71299 15.7843 7.31052 15.7825 7.86486 15.6008C8.4192 15.4191 8.90199 15.0667 9.24428 14.594C9.58658 14.1213 9.77089 13.5524 9.77087 12.9686V0H13.0345C13.0323 0.275844 13.0554 0.551313 13.1035 0.822923C13.2169 1.42925 13.4527 2.00605 13.7965 2.51804C14.1403 3.03003 14.5848 3.46644 15.1029 3.80059C15.8399 4.28837 16.7041 4.54835 17.5877 4.54816V7.7916Z" fill="#555433"/>
</svg>
