<svg width="22" height="17" viewBox="0 0 22 17" fill="none" xmlns="http://www.w3.org/2000/svg">
<path d="M21.0818 2.01651C20.3425 2.35727 19.5483 2.58752 18.7133 2.69159C19.5748 2.15539 20.2194 1.31147 20.5267 0.317296C19.7172 0.81738 18.8314 1.16939 17.9076 1.35801C17.2864 0.668066 16.4635 0.210762 15.5668 0.057094C14.6701 -0.0965741 13.7498 0.0619913 12.9486 0.508172C12.1474 0.954353 11.5103 1.66319 11.1361 2.52462C10.7619 3.38606 10.6716 4.35189 10.8792 5.27219C9.23909 5.18653 7.63466 4.74313 6.17 3.97075C4.70534 3.19837 3.41318 2.11428 2.37738 0.78884C2.02322 1.42432 1.81957 2.16111 1.81957 2.94578C1.81918 3.65217 1.98641 4.34774 2.30644 4.97078C2.62647 5.59382 3.0894 6.12505 3.65415 6.51736C2.99919 6.49568 2.35868 6.31159 1.78592 5.98042V6.03568C1.78586 7.02642 2.11533 7.98667 2.71843 8.7535C3.32153 9.52033 4.16112 10.0465 5.09473 10.2427C4.48714 10.4138 3.85013 10.439 3.23181 10.3164C3.49522 11.1689 4.00832 11.9143 4.69927 12.4484C5.39023 12.9825 6.22445 13.2785 7.08514 13.2949C5.62406 14.4879 3.81963 15.1351 1.96212 15.1322C1.63308 15.1323 1.30433 15.1123 0.977539 15.0724C2.86301 16.3334 5.05784 17.0026 7.29942 17C14.8874 17 19.0356 10.4629 19.0356 4.79328C19.0356 4.60908 19.0312 4.42304 19.0232 4.23884C19.8301 3.63189 20.5266 2.8803 21.08 2.01927L21.0818 2.01651Z" fill="#555433"/>
</svg>
