<svg width="18" height="16" viewBox="0 0 18 16" fill="none" xmlns="http://www.w3.org/2000/svg">
<path d="M16.2159 2.65579L16.2161 2.65617C17.103 4.46846 16.7801 6.55927 15.0359 8.95281L15.035 8.95406C13.6532 10.8627 11.6581 12.7818 8.73201 15.049L8.73118 15.0497C8.72585 15.0538 8.71913 15.0562 8.71207 15.0562C8.70501 15.0562 8.69828 15.0538 8.69296 15.0497L8.69223 15.0491C5.76254 12.7779 3.77084 10.842 2.38761 8.95197C0.638641 6.55874 0.315916 4.46822 1.20273 2.65617L1.20292 2.65579C1.80432 1.42431 3.59527 0.346647 5.7551 0.964195C6.78438 1.26096 7.68216 1.89712 8.30197 2.76852L8.70942 3.34136L9.11686 2.76852C9.73677 1.89698 10.6347 1.26076 11.6642 0.964052L11.6655 0.963677C13.8169 0.337378 15.6136 1.42245 16.2159 2.65579Z" stroke="#555433"/>
</svg>
