<svg width="19" height="20" viewBox="0 0 19 20" fill="none" xmlns="http://www.w3.org/2000/svg">
<rect x="0.5" y="2.16675" width="18" height="17.3333" stroke="#2D457C"/>
<rect x="0.5" y="2.16675" width="18" height="4" stroke="#2D457C"/>
<line x1="4.63062" y1="2.18557e-08" x2="4.63062" y2="1.66667" stroke="#2D457C"/>
<line x1="15.3696" y1="2.20474e-08" x2="15.3696" y2="1.66667" stroke="#2D457C"/>
<path d="M12.7785 9.87121L10.275 12.3969L10.1878 12.4848L10.275 12.5728L12.7785 15.0985L12.0909 15.7921L9.58842 13.2681L9.49964 13.1785L9.41087 13.2681L6.90897 15.7921L6.22141 15.0985L8.72487 12.5728L8.81209 12.4848L8.72487 12.3969L6.22141 9.87121L6.90897 9.17756L9.41087 11.7016L9.49964 11.7912L9.58842 11.7016L12.0909 9.17755L12.7785 9.87121Z" fill="#2D457C" stroke="#2D457C" stroke-width="0.25"/>
</svg>
