<svg width="17" height="17" viewBox="0 0 17 17" fill="none" xmlns="http://www.w3.org/2000/svg">
<path fill-rule="evenodd" clip-rule="evenodd" d="M5.28836 0.755002C6.11923 0.716752 6.38415 0.708252 8.50065 0.708252C10.6172 0.708252 10.8821 0.71746 11.7122 0.755002C12.5424 0.792544 13.1091 0.925002 13.6049 1.11696C14.1241 1.31317 14.5951 1.61988 14.9847 2.01654C15.3814 2.40542 15.6874 2.87575 15.8829 3.39567C16.0756 3.8915 16.2073 4.45817 16.2456 5.28692C16.2838 6.11921 16.2923 6.38413 16.2923 8.49992C16.2923 10.6164 16.2831 10.8813 16.2456 11.7122C16.208 12.541 16.0756 13.1076 15.8829 13.6035C15.6874 14.1234 15.3809 14.5946 14.9847 14.984C14.5951 15.3807 14.1241 15.6867 13.6049 15.8822C13.1091 16.0748 12.5424 16.2066 11.7137 16.2448C10.8821 16.2831 10.6172 16.2916 8.50065 16.2916C6.38415 16.2916 6.11923 16.2824 5.28836 16.2448C4.45961 16.2073 3.89294 16.0748 3.39711 15.8822C2.87714 15.6866 2.40602 15.3801 2.01657 14.984C1.62017 14.5949 1.31342 14.124 1.11769 13.6042C0.925734 13.1083 0.793984 12.5417 0.755734 11.7129C0.717484 10.8806 0.708984 10.6157 0.708984 8.49992C0.708984 6.38342 0.718193 6.1185 0.755734 5.28833C0.793276 4.45817 0.925734 3.8915 1.11769 3.39567C1.3137 2.87581 1.62069 2.40493 2.01728 2.01584C2.40618 1.61952 2.87682 1.31277 3.3964 1.11696C3.89223 0.925002 4.4589 0.793252 5.28765 0.755002H5.28836ZM11.6492 2.1575C10.8275 2.11996 10.581 2.11217 8.50065 2.11217C6.42028 2.11217 6.17378 2.11996 5.35211 2.1575C4.59207 2.19221 4.17982 2.319 3.90498 2.42596C3.54161 2.56763 3.28165 2.7355 3.00894 3.00821C2.75043 3.25971 2.55149 3.56587 2.42669 3.90425C2.31973 4.17909 2.19294 4.59133 2.15823 5.35138C2.12069 6.17304 2.1129 6.41954 2.1129 8.49992C2.1129 10.5803 2.12069 10.8268 2.15823 11.6485C2.19294 12.4085 2.31973 12.8208 2.42669 13.0956C2.55136 13.4335 2.7504 13.7402 3.00894 13.9916C3.2604 14.2502 3.56711 14.4492 3.90498 14.5739C4.17982 14.6808 4.59207 14.8076 5.35211 14.8423C6.17378 14.8799 6.41957 14.8877 8.50065 14.8877C10.5817 14.8877 10.8275 14.8799 11.6492 14.8423C12.4092 14.8076 12.8215 14.6808 13.0963 14.5739C13.4597 14.4322 13.7197 14.2643 13.9924 13.9916C14.2509 13.7402 14.4499 13.4335 14.5746 13.0956C14.6816 12.8208 14.8084 12.4085 14.8431 11.6485C14.8806 10.8268 14.8884 10.5803 14.8884 8.49992C14.8884 6.41954 14.8806 6.17304 14.8431 5.35138C14.8084 4.59133 14.6816 4.17909 14.5746 3.90425C14.4329 3.54088 14.2651 3.28092 13.9924 3.00821C13.7408 2.74972 13.4347 2.55078 13.0963 2.42596C12.8215 2.319 12.4092 2.19221 11.6492 2.1575ZM7.50544 10.9019C8.06124 11.1332 8.68013 11.1645 9.25639 10.9902C9.83266 10.816 10.3306 10.4471 10.665 9.94651C10.9995 9.44595 11.1499 8.84478 11.0904 8.2457C11.0308 7.64662 10.7652 7.08677 10.3388 6.66179C10.0669 6.39013 9.73826 6.18212 9.37639 6.05273C9.01451 5.92334 8.62845 5.8758 8.246 5.91352C7.86355 5.95124 7.49422 6.07329 7.1646 6.27089C6.83497 6.46848 6.55326 6.7367 6.33974 7.05623C6.12622 7.37576 5.9862 7.73866 5.92977 8.11881C5.87333 8.49895 5.90188 8.88688 6.01337 9.25466C6.12485 9.62244 6.31649 9.96093 6.57449 10.2458C6.8325 10.5306 7.15044 10.7547 7.50544 10.9019ZM5.66873 5.668C6.04063 5.29611 6.48213 5.00111 6.96803 4.79984C7.45393 4.59857 7.97472 4.49498 8.50065 4.49498C9.02659 4.49498 9.54737 4.59857 10.0333 4.79984C10.5192 5.00111 10.9607 5.29611 11.3326 5.668C11.7045 6.03989 11.9995 6.48139 12.2007 6.9673C12.402 7.4532 12.5056 7.97398 12.5056 8.49992C12.5056 9.02585 12.402 9.54664 12.2007 10.0325C11.9995 10.5184 11.7045 10.9599 11.3326 11.3318C10.5815 12.0829 9.56283 12.5049 8.50065 12.5049C7.43848 12.5049 6.41981 12.0829 5.66873 11.3318C4.91766 10.5808 4.49572 9.56209 4.49572 8.49992C4.49572 7.43774 4.91766 6.41907 5.66873 5.668ZM13.3938 5.09142C13.486 5.00448 13.5598 4.89994 13.6108 4.78398C13.6618 4.66802 13.6891 4.543 13.6909 4.41633C13.6928 4.28965 13.6692 4.16389 13.6215 4.04649C13.5739 3.92909 13.5032 3.82245 13.4136 3.73286C13.324 3.64328 13.2174 3.57258 13.1 3.52495C12.9826 3.47732 12.8568 3.45373 12.7302 3.45558C12.6035 3.45743 12.4785 3.48467 12.3625 3.5357C12.2465 3.58673 12.142 3.66051 12.0551 3.75267C11.886 3.9319 11.7934 4.16996 11.797 4.41633C11.8006 4.66269 11.9001 4.89796 12.0743 5.07218C12.2485 5.24641 12.4838 5.34587 12.7302 5.34946C12.9765 5.35306 13.2146 5.26049 13.3938 5.09142Z" fill="#555433"/>
</svg>
