<svg width="15" height="17" viewBox="0 0 15 17" fill="none" xmlns="http://www.w3.org/2000/svg">
<g clip-path="url(#clip0_972_9289)">
<path d="M7.10476 11.2702C7.14643 11.2842 7.1742 11.3122 7.18809 11.3542C7.20198 11.3961 7.19504 11.4381 7.16726 11.4801L5.43809 13.2221C5.16031 13.5019 4.84087 13.7258 4.47976 13.8937C4.11865 14.0616 3.75059 14.1595 3.37559 14.1875C3.00059 14.2155 2.62559 14.1875 2.25059 14.1035C1.87559 14.0196 1.53531 13.8447 1.22976 13.5789C0.854759 13.285 0.563092 12.9282 0.354759 12.5085C0.146425 12.0887 0.0353141 11.669 0.0214252 11.2492C0.0075363 10.8295 0.0700363 10.4027 0.208925 9.96898C0.347814 9.53524 0.583925 9.15746 0.917259 8.83565L3.60476 6.12824C4.03531 5.6945 4.53531 5.37269 5.10476 5.16281C5.6742 4.95293 6.25754 4.89697 6.85476 4.99491C7.38254 5.07886 7.7992 5.23277 8.10476 5.45664C8.41032 5.6805 8.65337 5.93935 8.83393 6.23318C8.8617 6.30314 8.85823 6.35561 8.82351 6.39059C8.78879 6.42557 8.75059 6.45705 8.70893 6.48503C8.66726 6.51301 8.61865 6.55499 8.56309 6.61096L8.41726 6.75787C8.27837 6.91178 8.1117 6.98873 7.91726 6.98873C7.72282 6.98873 7.54573 6.90828 7.38601 6.74738C7.22629 6.58647 7.0492 6.46404 6.85476 6.38009C6.66032 6.29614 6.44504 6.26116 6.20893 6.27515C5.97282 6.28915 5.76448 6.32413 5.58393 6.38009C5.40337 6.43606 5.21587 6.56199 5.02143 6.75787L1.93809 9.86404C1.75754 10.0459 1.62559 10.2558 1.54226 10.4937C1.45893 10.7315 1.43115 10.9694 1.45893 11.2073C1.4867 11.4451 1.55615 11.683 1.66726 11.9208C1.77837 12.1587 1.95893 12.3476 2.20893 12.4875C2.55615 12.7254 2.93115 12.8093 3.33393 12.7394C3.7367 12.6694 4.07698 12.5015 4.35476 12.2356L5.68809 10.9134C5.71587 10.8715 5.75754 10.8645 5.81309 10.8924C6.22976 11.0743 6.66032 11.2003 7.10476 11.2702ZM12.8964 0.650463C13.2714 0.944291 13.5631 1.29408 13.7714 1.69985C13.9798 2.10561 14.0978 2.52536 14.1256 2.95911C14.1534 3.39285 14.0909 3.8266 13.9381 4.26034C13.7853 4.69408 13.5423 5.07186 13.2089 5.39367L10.5214 8.10108C10.0909 8.53483 9.59087 8.84964 9.02143 9.04552C8.45198 9.24141 7.8617 9.29738 7.25059 9.21343C6.72282 9.14347 6.31309 8.98956 6.02143 8.7517C5.72976 8.51384 5.4867 8.25499 5.29226 7.97515C5.26448 7.91919 5.27143 7.87022 5.31309 7.82824L5.68809 7.45046C5.84087 7.31055 6.01448 7.24059 6.20893 7.24059C6.40337 7.24059 6.57004 7.31055 6.70893 7.45046C6.87559 7.61836 7.06309 7.74429 7.27143 7.82824C7.47976 7.91219 7.69504 7.95417 7.91726 7.95417C8.13948 7.95417 8.35476 7.91219 8.56309 7.82824C8.77143 7.74429 8.95198 7.61836 9.10476 7.45046L12.1881 4.36528C12.3686 4.18338 12.5006 3.96651 12.5839 3.71466C12.6673 3.46281 12.695 3.21795 12.6673 2.98009C12.6395 2.74223 12.5631 2.51137 12.4381 2.2875C12.3131 2.06363 12.1325 1.87474 11.8964 1.72083C11.5631 1.49697 11.195 1.41301 10.7923 1.46898C10.3895 1.52495 10.0423 1.69985 9.75059 1.99367L8.43809 3.3159C8.39643 3.35787 8.35476 3.36487 8.31309 3.33688C7.9242 3.16898 7.49365 3.03606 7.02143 2.93812C6.96587 2.93812 6.93809 2.91013 6.93809 2.85417C6.93809 2.7982 6.94504 2.76322 6.95893 2.74923L8.68809 1.00725C8.96587 0.727418 9.28532 0.50355 9.64643 0.335649C10.0075 0.167747 10.3686 0.0628091 10.7298 0.0208338C11.0909 -0.0211415 11.4659 0.0138379 11.8548 0.125772C12.2436 0.237706 12.5909 0.412603 12.8964 0.650463Z" fill="#555433"/>
</g>
<defs>
<clipPath id="clip0_972_9289">
<rect width="14.1667" height="17" fill="white"/>
</clipPath>
</defs>
</svg>
