<svg width="22" height="14" viewBox="0 0 22 14" fill="none" xmlns="http://www.w3.org/2000/svg">
<path d="M21.5278 2.1966C21.409 1.77269 21.1775 1.3889 20.858 1.08604C20.5294 0.773862 20.1268 0.550554 19.688 0.437193C18.0457 0.00433624 11.4663 0.00433634 11.4663 0.00433634C8.72344 -0.0268707 5.98122 0.110386 3.25517 0.415331C2.81635 0.537067 2.41443 0.765365 2.08514 1.07992C1.76159 1.39123 1.52724 1.77511 1.40481 2.19573C1.11073 3.78002 0.967841 5.38867 0.978079 6.99999C0.967585 8.60987 1.11012 10.218 1.40481 11.8043C1.52461 12.2231 1.75809 12.6053 2.08252 12.9139C2.40694 13.2226 2.81094 13.4456 3.25517 13.5637C4.91926 13.9957 11.4663 13.9957 11.4663 13.9957C14.2127 14.0269 16.9584 13.8896 19.688 13.5847C20.1268 13.4713 20.5294 13.248 20.858 12.9358C21.1774 12.633 21.4086 12.2492 21.527 11.8252C21.8287 10.2416 21.9754 8.63225 21.9651 7.02011C21.9878 5.40114 21.8412 3.78423 21.5278 2.19573V2.1966ZM9.37462 9.99414V4.00673L14.8487 7.00087L9.37462 9.99414Z" fill="#555433"/>
</svg>
