<svg width="325" height="485" viewBox="0 0 325 485" fill="none" xmlns="http://www.w3.org/2000/svg">
<rect x="324" y="484" width="323" height="32" transform="rotate(180 324 484)" stroke="#2D457C"/>
<path d="M307.354 468.354C307.549 468.158 307.549 467.842 307.354 467.646L304.172 464.464C303.976 464.269 303.66 464.269 303.464 464.464C303.269 464.66 303.269 464.976 303.464 465.172L306.293 468L303.464 470.828C303.269 471.024 303.269 471.34 303.464 471.536C303.66 471.731 303.976 471.731 304.172 471.536L307.354 468.354ZM17 468.5L307 468.5L307 467.5L17 467.5L17 468.5Z" fill="#2D457C"/>
<path d="M27.5831 23.6397V27.0343H40.6082V34.3667H27.5831V46.18H19.4424V15.7642H48.3419V23.6397H27.5831Z" fill="#2D457C"/>
<path d="M27.3116 76.8055V80.0643H41.0151V87.3967H27.3116V91.3345H48.7488V99.3458H19.1709V68.9299H48.7488V76.8055H27.3116Z" fill="#2D457C"/>
<path d="M51.8698 155.363H43.1864L40.4728 149.253H27.1763L24.5985 155.363H15.915L29.3472 124.947H38.8447L51.8698 155.363ZM37.3522 140.97L33.9603 132.687L30.5683 140.97H37.3522Z" fill="#2D457C"/>
<path d="M51.0561 189.223H38.031V211.899H29.8903V189.223H16.7295V181.483H50.9205V189.223H51.0561Z" fill="#2D457C"/>
<path d="M49.02 239.426V258.165C49.02 265.361 43.0502 270.657 33.9597 270.657C24.8693 270.657 18.8994 265.361 18.8994 258.029V239.426H27.0401V257.214C27.0401 260.473 29.7537 262.374 33.9597 262.374C38.1658 262.374 40.8793 260.473 40.8793 257.214V239.426H49.02Z" fill="#2D457C"/>
<path d="M43.7284 313.158L49.1556 325.378H40.8792L35.9948 313.972H26.7686V325.378H18.6279V294.962H24.8691H39.3867C45.3566 294.962 49.1556 298.764 49.1556 304.603C49.1556 308.812 47.1204 311.8 43.7284 313.158ZM26.7686 306.504H39.1154C40.2008 306.504 40.8792 305.689 40.8792 304.603C40.8792 303.517 40.2008 302.702 39.1154 302.702H26.7686V306.504Z" fill="#2D457C"/>
<path d="M27.3116 358.374V361.633H41.0151V368.965H27.3116V372.903H48.7488V380.914H19.1709V350.498H48.7488V358.374H27.3116Z" fill="#2D457C"/>
<path d="M49.2922 421.378C49.2922 429.661 43.1866 436.586 35.9957 436.586C26.6339 436.586 18.4932 436.586 18.4932 436.586V406.17H35.453C41.4228 406.17 49.2922 411.33 49.2922 421.378ZM41.2871 421.378C41.2871 416.897 39.1163 413.91 34.7746 413.91H26.6339V428.846H34.7746C39.1163 428.846 41.2871 425.859 41.2871 421.378Z" fill="#2D457C"/>
<path d="M119.438 152.563C119.438 168.721 109.94 177.683 96.3726 177.683C96.3726 182.028 96.2369 211.493 96.2369 211.493H78.7344C78.7344 211.493 78.7344 133.824 78.7344 129.751C78.7344 128.393 78.7344 128.393 78.7344 128.393C83.8902 128.393 90.267 128.393 95.4228 128.393C98.8148 128.393 102.342 128.529 105.599 129.615C116.86 133.96 119.438 144.687 119.438 152.563ZM101.8 152.291C101.8 147.403 100.443 143.737 97.051 143.737C96.5082 143.737 96.5083 143.737 96.5083 143.737C96.5083 146.86 96.3726 161.796 96.3726 161.796H96.6439C100.714 161.796 101.8 156.636 101.8 152.291Z" fill="#2D457C"/>
<path d="M185.513 211.629H167.061L166.654 209.864C165.297 203.754 160.141 176.325 159.734 175.239C159.734 175.103 159.734 176.597 159.734 176.733C159.734 176.868 159.598 211.493 159.598 211.493H142.096C142.096 211.493 142.096 133.824 142.096 129.751C142.096 128.393 142.096 128.393 142.096 128.393C147.251 128.393 153.628 128.393 158.784 128.393C162.176 128.393 165.568 128.393 168.96 129.208C177.779 131.38 182.935 139.392 182.935 148.082C182.935 161.796 173.709 167.092 173.573 167.092C173.573 167.092 184.97 210.271 185.106 210.679L185.241 210.95L185.513 211.629ZM165.432 152.291C165.432 146.86 163.669 143.737 160.277 143.737C160.141 143.737 160.005 143.737 160.005 143.737C160.005 146.86 159.87 161.253 159.87 161.253C159.87 161.253 159.87 161.253 160.141 161.253C164.211 161.389 165.432 156.636 165.432 152.291Z" fill="#2D457C"/>
<path d="M247.382 154.871C247.382 159.759 247.382 179.448 247.382 183.929C247.382 188.546 247.518 193.162 246.432 197.643C244.261 206.334 235.849 212.58 226.895 212.58C217.533 212.58 209.528 206.062 207.628 196.964C206.95 194.113 207.085 190.99 207.085 188.138C206.95 181.349 207.085 156.093 207.221 150.39C207.221 149.847 207.221 149.168 207.221 148.625C207.357 143.737 208.578 138.848 211.563 134.911C218.483 126.22 231.915 125.134 240.191 132.331C243.854 135.59 246.432 140.071 247.111 144.823C247.653 148.082 247.382 151.476 247.382 154.871ZM229.88 148.489C229.88 147.267 229.608 145.638 228.658 144.687C227.709 143.737 225.945 143.873 224.995 144.959C223.91 146.181 223.91 148.218 223.774 149.711C223.638 154.464 223.638 185.694 223.638 189.768C223.638 191.397 223.774 193.162 225.131 194.249C226.216 195.063 227.709 194.928 228.658 194.113C229.744 193.162 229.88 191.261 229.88 189.768C230.015 185.015 229.88 150.798 229.88 148.489Z" fill="#2D457C"/>
<path d="M246.025 312.345C243.447 319.27 237.342 324.565 230.015 325.516C219.975 326.874 211.02 320.628 208.307 310.851C207.221 306.778 206.543 302.161 207.086 297.952C207.086 297.816 207.221 297.408 207.221 297.408C208.578 297.408 220.111 297.68 223.231 297.68C223.231 297.68 223.231 301.754 223.231 303.247C223.231 304.469 223.503 305.827 224.045 307.049C224.588 308.135 225.402 309.086 226.623 309.086C231.372 309.357 230.287 302.161 229.337 299.309C227.302 293.471 222.417 289.804 218.211 285.595C218.076 285.459 217.94 285.324 217.668 285.052C216.312 283.694 214.819 282.2 213.734 280.707C211.563 277.855 209.663 274.868 208.307 271.609C207.086 268.35 206.814 264.82 206.95 261.425C207.221 255.858 209.256 250.291 213.327 246.353C218.211 241.601 225.402 239.564 232.05 241.329C236.121 242.415 240.327 245.131 242.769 248.662C244.126 250.563 245.211 252.464 245.89 254.636C246.704 257.488 247.111 260.475 247.111 263.598C247.111 265.092 246.975 268.622 246.975 268.622L230.965 268.486C230.965 266.314 230.829 264.141 230.558 261.968C230.151 259.796 229.608 256.673 226.759 256.944C225.674 257.08 224.859 257.895 224.452 258.845C223.91 260.068 223.91 261.29 224.045 262.512C224.181 265.092 225.266 267.264 226.623 269.301C227.302 270.523 228.251 271.609 229.201 272.56C230.015 273.374 230.694 274.325 231.508 275.14C233.136 276.769 234.764 278.398 236.256 280.164C238.427 282.472 240.598 284.916 242.498 287.632C247.382 294.421 249.01 304.333 246.025 312.345Z" fill="#2D457C"/>
<path d="M1 1L1.00002 451.878" stroke="#2D457C" stroke-miterlimit="10"/>
<path d="M65.9287 1L65.9287 451.878" stroke="#2D457C" stroke-miterlimit="10"/>
<path d="M130.664 1L130.664 451.878" stroke="#2D457C" stroke-miterlimit="10"/>
<path d="M323.643 112.3H1" stroke="#2D457C" stroke-miterlimit="10"/>
<path d="M323.643 1H1" stroke="#2D457C" stroke-miterlimit="10"/>
<path d="M323.643 226.393H1" stroke="#2D457C" stroke-miterlimit="10"/>
<path d="M323.643 339.094H1" stroke="#2D457C" stroke-miterlimit="10"/>
<path d="M65.5733 395.31H1.26172" stroke="#2D457C" stroke-miterlimit="10"/>
<path d="M65.5733 282.744H1.26172" stroke="#2D457C" stroke-miterlimit="10"/>
<path d="M65.5733 170.178H1.26172" stroke="#2D457C" stroke-miterlimit="10"/>
<path d="M66.1152 56.6499H1.66797" stroke="#2D457C" stroke-miterlimit="10"/>
<path d="M323.643 452H1" stroke="#2D457C" stroke-miterlimit="10"/>
<path d="M195.4 1L195.4 451.878" stroke="#2D457C" stroke-miterlimit="10"/>
<path d="M259 1V452" stroke="#2D457C" stroke-miterlimit="10"/>
<path d="M324 1L324 452" stroke="#2D457C" stroke-miterlimit="10"/>
<path d="M259 1L195.4 112.3M195.4 1L259 112.3" stroke="#2D457C" stroke-miterlimit="10"/>
<path d="M195.4 339.443L130.664 450.743M130.664 339.443L195.4 450.743" stroke="#2D457C" stroke-miterlimit="10"/>
<path d="M323.736 227L259 339.436M259 227L323.736 339.436" stroke="#2D457C" stroke-miterlimit="10"/>
</svg>
