<svg width="61" height="79" viewBox="0 0 61 79" fill="none" xmlns="http://www.w3.org/2000/svg">
<path d="M23 16V37H19.0236V23.3756L17.2819 36.8126H14.7449C14.7449 36.8126 12.9948 23.4927 12.9755 23.4495V37H9V16H15.0977L16.123 26.2248L17.0711 16.0009L23 16Z" fill="white"/>
<path d="M58 55.4144C58 58.7246 55.7477 60.9898 51.5127 60.9898L38 61V41H51.1939C55.36 41 57.6769 43.2881 57.6769 46.5178C57.6769 49.367 55.6534 50.4653 54.94 50.8161C55.763 51.0186 58 52.3975 58 55.4144ZM43.365 48.3932H51.0221C51.721 48.3932 52.2125 48 52.2125 47.2424C52.2125 46.4847 51.7236 46.0924 51.0221 46.0924H43.365V48.3932ZM52.539 54.6517C52.539 53.8941 52.0509 53.3924 51.3486 53.3924H43.365V55.911H51.3512C52.0509 55.911 52.539 55.4076 52.539 54.6517Z" fill="white"/>
<path d="M0.549634 79C0.447009 79 0.346443 78.9712 0.259312 78.9169C0.172181 78.8626 0.101965 78.785 0.0566096 78.6928C0.0112541 78.6007 -0.00743062 78.4977 0.0026695 78.3954C0.0127696 78.2932 0.051252 78.1958 0.113761 78.1143L60.0054 0.226903C60.0486 0.167378 60.1033 0.117127 60.1662 0.079121C60.2291 0.0411148 60.299 0.0161252 60.3718 0.00562936C60.4445 -0.00486653 60.5186 -0.000655629 60.5897 0.0180132C60.6608 0.0366821 60.7274 0.0694297 60.7856 0.114321C60.8439 0.159211 60.8925 0.215334 60.9287 0.279371C60.9649 0.343407 60.9879 0.414058 60.9964 0.487146C61.0048 0.560234 60.9985 0.634277 60.9779 0.704896C60.9573 0.775515 60.9227 0.841277 60.8763 0.898295L0.985508 78.7857C0.934094 78.8525 0.868056 78.9065 0.792484 78.9436C0.716913 78.9808 0.633826 79.0001 0.549634 79Z" fill="#F7CBAD"/>
</svg>
