<svg width="467" height="148" viewBox="0 0 467 148" fill="none" xmlns="http://www.w3.org/2000/svg">
<path d="M1 136.382H0.5V136.882H1V136.382ZM1 1V0.5H0.5V1H1ZM465.685 1H466.185V0.5H465.685V1ZM465.185 147.486C465.185 147.762 465.409 147.986 465.685 147.986C465.961 147.986 466.185 147.762 466.185 147.486H465.185ZM423.982 135.882H1V136.882H423.982V135.882ZM1.5 136.382V1H0.5V136.382H1.5ZM1 1.5H465.685V0.5H1V1.5ZM465.185 1V147.486H466.185V1H465.185Z" fill="#555433"/>
<path d="M465.685 60.0945C465.961 60.0945 466.185 59.8706 466.185 59.5945C466.185 59.3183 465.961 59.0945 465.685 59.0945V60.0945ZM1 60.0945H465.685V59.0945H1V60.0945Z" fill="#555433"/>
<path d="M466.093 1.28842C466.252 1.06285 466.198 0.750856 465.973 0.591569C465.747 0.432281 465.435 0.486014 465.276 0.711584L466.093 1.28842ZM465.276 0.711584L423.899 59.3061L424.716 59.8829L466.093 1.28842L465.276 0.711584Z" fill="#555433"/>
<path d="M465 118.5C465.276 118.5 465.5 118.276 465.5 118C465.5 117.724 465.276 117.5 465 117.5V118.5ZM424 118.5H465V117.5H424V118.5Z" fill="#555433"/>
<path d="M466.092 59.8846C466.252 59.6597 466.199 59.3475 465.975 59.1873C465.75 59.027 465.438 59.0794 465.277 59.3043L466.092 59.8846ZM465.277 59.3043L423.525 117.899L424.339 118.479L466.092 59.8846L465.277 59.3043Z" fill="#555433"/>
<path d="M48.2673 59.5945C48.2673 59.8706 48.4912 60.0945 48.7673 60.0945C49.0435 60.0945 49.2673 59.8706 49.2673 59.5945H48.2673ZM48.2673 1V59.5945H49.2673V1H48.2673Z" fill="#555433"/>
<path d="M90.5756 147.486C90.5756 147.762 90.7994 147.986 91.0756 147.986C91.3517 147.986 91.5756 147.762 91.5756 147.486H90.5756ZM90.5756 1V147.486H91.5756V1H90.5756Z" fill="#555433"/>
<path d="M131.519 59.5945C131.519 59.8706 131.743 60.0945 132.019 60.0945C132.295 60.0945 132.519 59.8706 132.519 59.5945H131.519ZM131.519 1V59.5945H132.519V1H131.519Z" fill="#555433"/>
<path d="M173.372 147.458C173.372 147.735 173.596 147.958 173.872 147.958C174.148 147.958 174.372 147.735 174.372 147.458H173.372ZM173.372 1V147.458H174.372V1H173.372Z" fill="#555433"/>
<path d="M215.225 59.5945C215.225 59.8706 215.449 60.0945 215.725 60.0945C216.001 60.0945 216.225 59.8706 216.225 59.5945H215.225ZM215.225 1V59.5945H216.225V1H215.225Z" fill="#555433"/>
<path d="M257.078 147.458C257.078 147.735 257.302 147.958 257.578 147.958C257.854 147.958 258.078 147.735 258.078 147.458H257.078ZM257.078 1V147.458H258.078V1H257.078Z" fill="#555433"/>
<path d="M298.428 59.5945C298.428 59.8706 298.652 60.0945 298.928 60.0945C299.204 60.0945 299.428 59.8706 299.428 59.5945H298.428ZM298.428 1V59.5945H299.428V1H298.428Z" fill="#555433"/>
<path d="M339.875 147.458C339.875 147.735 340.099 147.958 340.375 147.958C340.651 147.958 340.875 147.735 340.875 147.458H339.875ZM339.875 1V147.458H340.875V1H339.875Z" fill="#555433"/>
<path d="M381.728 59.5945C381.728 59.8706 381.952 60.0945 382.228 60.0945C382.504 60.0945 382.728 59.8706 382.728 59.5945H381.728ZM381.728 1V59.5945H382.728V1H381.728Z" fill="#555433"/>
<path d="M423.581 147.486C423.581 147.762 423.805 147.986 424.081 147.986C424.358 147.986 424.581 147.762 424.581 147.486H423.581ZM423.581 1V147.486H424.581V1H423.581Z" fill="#555433"/>
<path d="M38.0269 12.5195V48.9888H30.6056V25.3128L27.3658 48.6565H22.6583C22.6583 48.6565 19.3907 25.5344 19.363 25.4513V48.9888H11.9695V12.5195H23.3229L25.2335 30.2696L27.0058 12.5195H38.0269Z" fill="#555433"/>
<path d="M81.6365 48.9888H73.6615L72.6923 42.066L67.1817 42.0937L66.1848 48.9888H58.3206L64.9111 12.5195H74.9352L81.6365 48.9888ZM71.7231 34.8109L69.9231 21.7684L68.0955 34.8109H71.7231Z" fill="#555433"/>
<path d="M247.783 48.9888H239.808L238.839 42.066L233.328 42.0937L232.331 48.9888H224.467L231.057 12.5195H241.081L247.783 48.9888ZM237.897 34.8109L236.097 21.7684L234.269 34.8109H237.897Z" fill="#555433"/>
<path d="M119.961 12.5195V19.9684H115.254V48.9888H107.583V19.9684H102.904V12.5195H107.583H115.254H119.961Z" fill="#555433"/>
<path d="M162.898 48.9888H154.812L154.646 48.2411C154.065 45.5551 151.766 33.5094 151.628 33.0664C151.628 33.0387 151.628 33.6756 151.628 33.731C151.628 33.814 151.545 48.9888 151.545 48.9888H143.847C143.847 48.9888 143.847 14.901 143.847 13.101C143.847 12.5195 143.847 12.5195 143.847 12.5195C146.09 12.5195 148.942 12.5195 151.185 12.5195C152.708 12.5195 154.176 12.5195 155.671 12.8795C159.548 13.821 161.791 17.3378 161.791 21.1592C161.791 27.1681 157.72 29.4942 157.692 29.4942C157.692 29.4942 162.732 48.4626 162.76 48.6288L162.787 48.7396L162.898 48.9888ZM154.065 22.9591C154.065 20.6053 153.317 19.1931 151.822 19.1931C151.739 19.1931 151.711 19.1931 151.683 19.1931C151.683 20.5776 151.628 26.8912 151.628 26.8912C151.628 26.8912 151.628 26.8912 151.739 26.8912C153.539 26.9189 154.065 24.8421 154.065 22.9591Z" fill="#555433"/>
<path d="M287.908 48.9888H279.822L279.656 48.2411C279.075 45.5551 276.776 33.5094 276.638 33.0664C276.638 33.0387 276.638 33.6756 276.638 33.731C276.638 33.814 276.555 48.9888 276.555 48.9888H268.857C268.857 48.9888 268.857 14.901 268.857 13.101C268.857 12.5195 268.857 12.5195 268.857 12.5195C271.1 12.5195 273.952 12.5195 276.195 12.5195C277.718 12.5195 279.186 12.5195 280.681 12.8795C284.558 13.821 286.801 17.3378 286.801 21.1592C286.801 27.1681 282.73 29.4942 282.702 29.4942C282.702 29.4942 287.742 48.4626 287.77 48.6288L287.797 48.7396L287.908 48.9888ZM279.075 22.9591C279.075 20.6053 278.327 19.1931 276.832 19.1931C276.749 19.1931 276.721 19.1931 276.693 19.1931C276.693 20.5776 276.638 26.8912 276.638 26.8912C276.638 26.8912 276.638 26.8912 276.749 26.8912C278.549 26.9189 279.075 24.8421 279.075 22.9591Z" fill="#555433"/>
<path d="M328.514 40.4876C328.43 42.2875 328.015 44.0044 327.018 45.5274C326.215 46.7458 325.135 47.7427 323.834 48.435C321.757 49.5426 319.237 49.7642 317.022 48.9611C314.834 48.1581 313.062 46.552 312.065 44.4475C311.179 42.5368 311.262 40.5984 311.262 38.5492C311.262 37.1924 311.262 21.3253 311.29 20.5777C311.4 16.784 314.086 13.1288 317.88 12.2703C318.157 12.215 318.434 12.1596 318.739 12.1319C319.625 12.0488 320.511 12.0488 321.425 12.1873C323.695 12.5473 325.661 13.9318 326.991 15.7871C327.6 16.6455 328.015 17.5594 328.237 18.5562C328.569 19.9408 328.569 21.4084 328.569 22.8484H328.597V26.0051H321.175V22.8484C321.175 22.4053 321.175 22.0176 321.175 21.7407C321.175 21.0761 321.175 20.1623 320.4 19.9131C319.929 19.7746 319.403 19.8854 319.099 20.2454C318.628 20.7992 318.683 21.6576 318.683 22.3499C318.655 25.1467 318.628 36.694 318.656 39.4908C318.656 40.0169 318.711 41.4014 319.985 41.4014C320.622 41.4014 321.12 40.8753 321.12 39.823C321.12 38.1062 321.175 34.3125 321.175 34.3125H322.422C324.194 34.3125 328.624 34.3125 328.624 34.3125V35.4478C328.569 35.4478 328.569 39.2138 328.514 40.4876Z" fill="#555433"/>
<path d="M370.701 12.5195V48.9888H363.03V34.4232H359.874V48.9888H352.203V12.5195H359.874V26.5866H363.03V12.5195H370.701Z" fill="#555433"/>
<path d="M413.669 12.5195L406.774 30.5465L406.636 48.9888H399.132L399.215 30.5465L392.236 12.5195H399.824L402.953 23.4298L405.888 12.5195H413.669Z" fill="#555433"/>
<path d="M191.159 48.9888V12.5195H198.83V48.9888H191.159Z" fill="#555433"/>
<path d="M73.4127 109.439C73.4127 118.189 67.4868 124.17 56.3273 124.17L20.7164 124.198V71.3357H55.4688C66.4345 71.3357 72.5543 77.3723 72.5543 85.9289C72.5543 93.4609 67.2099 96.3685 65.3546 97.2823C67.5145 97.8084 73.4127 101.464 73.4127 109.439ZM34.8389 90.8579H55.0258C56.8811 90.8579 58.1549 89.8057 58.1549 87.8119C58.1549 85.8182 56.8534 84.7659 55.0258 84.7659H34.8389V90.8579ZM59.0133 107.417C59.0133 105.423 57.7395 104.094 55.8842 104.094H34.8389V110.768H55.8842C57.7395 110.74 59.0133 109.411 59.0133 107.417Z" fill="#555433"/>
<path d="M158.99 71.3353V103.845C158.99 116.389 148.495 125.499 132.766 125.499C117.038 125.499 106.543 116.389 106.543 103.623V71.3076H120.665V102.156C120.665 107.915 125.401 111.155 132.739 111.155C140.105 111.155 144.812 107.915 144.812 102.156V71.3076H158.99V71.3353Z" fill="#555433"/>
<path d="M208.446 124.198V71.3357H222.569V124.198H208.446Z" fill="#555433"/>
<path d="M323.602 110.269V124.226H274.865V71.3633H288.988V110.269H323.602Z" fill="#555433"/>
<path d="M408.626 97.7807C408.626 112.125 397.965 124.198 385.42 124.198C369.083 124.198 354.932 124.198 354.932 124.198V71.3357H384.396C394.863 71.3357 408.626 80.363 408.626 97.7807ZM394.586 97.7807C394.586 90.0272 390.82 84.8213 383.177 84.8213H369.055V110.768H383.15C390.82 110.74 394.586 105.534 394.586 97.7807Z" fill="#555433"/>
<path d="M0.5 147.486C0.5 147.762 0.723858 147.986 1 147.986C1.27614 147.986 1.5 147.762 1.5 147.486H0.5ZM1.5 147.486V136.382H0.5V147.486H1.5Z" fill="#555433"/>
</svg>
