<svg width="318" height="298" viewBox="0 0 318 298" fill="none" xmlns="http://www.w3.org/2000/svg">
<path d="M316.774 143.875H1.22461V1.2251H316.774V298" stroke="#BBB69B" stroke-width="1.25" stroke-miterlimit="10"/>
<path d="M1.22461 72.5406H316.774" stroke="#BBB69B" stroke-width="1.25" stroke-miterlimit="10"/>
<path d="M316.774 215.21H1.22461" stroke="#BBB69B" stroke-width="1.25" stroke-miterlimit="10"/>
<path d="M316.774 285.748H1.22461" stroke="#BBB69B" stroke-width="1.25" stroke-miterlimit="10"/>
<path d="M45.5957 1.20581V72.5407" stroke="#BBB69B" stroke-width="1.25" stroke-miterlimit="10"/>
<path d="M84.3242 1.20581V71.9961" stroke="#BBB69B" stroke-width="1.25" stroke-miterlimit="10"/>
<path d="M161.82 143.875V285.748" stroke="#BBB69B" stroke-width="1.25" stroke-miterlimit="10"/>
<path d="M239.297 72.5406V285.748" stroke="#BBB69B" stroke-width="1.25" stroke-miterlimit="10"/>
<path d="M123.072 1.2251V143.875" stroke="#BBB69B" stroke-width="1.25" stroke-miterlimit="10"/>
<path d="M161.82 1.20581V142.767" stroke="#BBB69B" stroke-width="1.25" stroke-miterlimit="10"/>
<path d="M36.4523 21.6846V55.5626H29.5663V33.5867L26.5511 55.2709H22.1745C22.1745 55.2709 19.1398 33.8783 19.1009 33.7032V55.5626H12.2148V21.6846H22.7776L24.5475 38.1763L26.2011 21.6846H36.4523Z" fill="#BBB69B"/>
<path d="M75.4159 55.5821H68.0046L67.1099 49.1449H61.9743L61.0601 55.5626H53.7656L59.8733 21.665H69.1909L75.4159 55.5821ZM66.2147 42.4158L64.5421 30.2998L62.8495 42.3963L66.2147 42.4158Z" fill="#BBB69B"/>
<path d="M111.772 21.704V28.6273H107.434V55.5821H100.295V28.6273H95.9375V21.704H111.772Z" fill="#BBB69B"/>
<path d="M152.911 55.5818H145.402L145.227 54.8623C144.702 52.373 142.562 41.2488 142.426 40.7626C142.426 40.7626 142.426 41.3461 142.426 41.385C142.426 41.4239 142.426 55.5818 142.426 55.5818H135.268C135.268 55.5818 135.268 23.9012 135.268 22.2481V21.6843H142.095C143.492 21.6453 144.888 21.7626 146.258 22.0342C147.954 22.4826 149.444 23.5004 150.478 24.9168C151.512 26.3332 152.028 28.062 151.938 29.8134C152.027 31.3265 151.725 32.8372 151.06 34.1996C150.396 35.5621 149.392 36.7305 148.145 37.5926L152.852 55.368L152.911 55.5818ZM144.702 31.4083C144.702 29.2106 144.002 27.927 142.62 27.927H142.504C142.504 29.1911 142.504 35.0839 142.504 35.0839H142.62C144.216 35.0839 144.721 33.1391 144.721 31.4083H144.702Z" fill="#BBB69B"/>
<path d="M161.82 80.4366V134.891" stroke="#BBB69B" stroke-width="1.25" stroke-miterlimit="10"/>
<path d="M200.549 71.9962V143.876" stroke="#BBB69B" stroke-width="1.25" stroke-miterlimit="10"/>
<path d="M278.025 71.9962V215.444" stroke="#BBB69B" stroke-width="1.25" stroke-miterlimit="10"/>
<path d="M191.777 125.011H184.365L183.471 118.593H178.336L177.421 124.992H170.127L176.235 91.1134H185.552L191.777 125.011ZM182.576 111.845L180.903 99.7484L179.211 111.845H182.576Z" fill="#BBB69B"/>
<path d="M229.047 125.011H221.539L221.383 124.311C220.838 121.802 218.718 110.697 218.582 110.211V110.834V125.011H211.443C211.443 125.011 211.443 93.35 211.443 91.6775V91.1329C213.544 91.1329 216.19 91.1329 218.271 91.1329C219.66 91.0769 221.051 91.188 222.414 91.4636C224.111 91.9114 225.604 92.9284 226.641 94.3444C227.679 95.7604 228.199 97.4895 228.114 99.2427C228.199 100.755 227.894 102.264 227.23 103.626C226.566 104.988 225.564 106.157 224.32 107.022L229.028 124.778V124.894L229.047 125.011ZM220.858 100.837C220.858 98.6592 220.158 97.3561 218.777 97.3561H218.64C218.64 98.6397 218.64 104.513 218.64 104.513H218.738C220.352 104.513 220.858 102.588 220.858 100.837Z" fill="#BBB69B"/>
<path d="M264.662 117.115C264.65 118.77 264.171 120.388 263.281 121.783C262.539 122.918 261.522 123.848 260.324 124.486C259.359 125.003 258.298 125.315 257.206 125.402C256.115 125.489 255.017 125.349 253.983 124.992C251.951 124.256 250.293 122.746 249.373 120.791C248.714 119.049 248.455 117.181 248.614 115.326C248.614 114.062 248.614 99.3203 248.614 98.6202C248.647 96.8299 249.266 95.0999 250.376 93.6948C251.486 92.2898 253.027 91.2873 254.761 90.841C255.023 90.7818 255.29 90.7429 255.558 90.7245C256.378 90.6176 257.209 90.6176 258.029 90.7245C260.131 91.1164 261.992 92.3265 263.203 94.0889C263.747 94.8723 264.143 95.749 264.37 96.6754C264.624 97.9555 264.729 99.2608 264.681 100.565V103.521H257.776V100.565C257.776 100.157 257.776 99.787 257.776 99.5342C257.776 98.9119 257.776 98.0756 257.056 97.8228C256.844 97.749 256.614 97.7392 256.397 97.7945C256.179 97.8498 255.982 97.9679 255.831 98.134C255.49 98.7215 255.353 99.4054 255.442 100.079C255.442 102.685 255.442 113.42 255.442 116.007C255.442 116.493 255.442 117.776 256.687 117.776C257.27 117.776 257.737 117.29 257.737 116.318C257.737 114.723 257.737 111.183 257.737 111.183H264.681V112.253C264.681 112.253 264.72 115.929 264.662 117.115Z" fill="#BBB69B"/>
<path d="M306.328 91.1329V125.011H299.209V111.398H296.252V125.011H289.133V91.1329H296.252V104.202H299.209V91.1329H306.328Z" fill="#BBB69B"/>
<path d="M307.087 163.635L300.687 180.379L300.551 197.513H293.587V180.379L287.109 163.635H294.151L297.05 173.767L299.773 163.635H307.087Z" fill="#BBB69B"/>
<path d="M138.887 124.253V90.3743H146.025V124.253H138.887Z" fill="#BBB69B"/>
<path d="M68.4902 191.62C68.4902 199.749 62.985 205.234 52.6171 205.234H19.5488V156.128H51.8587C62.0515 156.128 67.7313 161.729 67.7313 169.741C67.7838 171.965 67.1743 174.155 65.9794 176.032C64.7844 177.909 63.0582 179.388 61.0204 180.282C63.2929 181.156 65.235 182.72 66.5744 184.753C67.9138 186.786 68.5837 189.187 68.4902 191.62ZM32.6594 174.37H51.4113C51.7946 174.408 52.1814 174.361 52.5449 174.234C52.9084 174.107 53.2396 173.902 53.5156 173.633C53.7916 173.365 54.0058 173.039 54.1429 172.679C54.28 172.319 54.337 171.934 54.3096 171.55C54.34 171.164 54.2854 170.776 54.1496 170.414C54.0138 170.052 53.8 169.724 53.5237 169.453C53.2473 169.182 52.9151 168.976 52.5501 168.847C52.1851 168.719 51.7963 168.672 51.4113 168.71H32.6594V174.37ZM55.1265 189.733C55.1593 189.334 55.1081 188.932 54.9754 188.554C54.8428 188.175 54.6318 187.829 54.3566 187.538C54.0815 187.246 53.7479 187.016 53.3779 186.861C53.0078 186.707 52.6095 186.632 52.2087 186.641H32.6594V192.845H52.2087C52.6105 192.852 53.0092 192.774 53.3793 192.618C53.7494 192.461 54.0828 192.229 54.3576 191.936C54.6324 191.643 54.8425 191.296 54.975 190.916C55.1074 190.537 55.1591 190.134 55.1265 189.733Z" fill="#BBB69B"/>
<path d="M147.426 156.205V186.428C147.426 198.096 137.7 206.537 123.053 206.537C108.406 206.537 98.6992 198.077 98.6992 186.233V156.205H111.829V184.872C111.829 190.239 116.225 193.234 123.053 193.234C129.881 193.234 134.296 190.239 134.296 184.872V156.205H147.426Z" fill="#BBB69B"/>
<path d="M193.119 205.331V156.205H206.269V205.331H193.119Z" fill="#BBB69B"/>
<path d="M224.727 261.321V274.293H179.443V225.168H192.573V261.321H224.727Z" fill="#BBB69B"/>
<path d="M303.975 249.75C303.975 263.091 294.073 274.293 282.402 274.293H254.08V225.168H281.469C291.195 225.168 303.975 233.55 303.975 249.75ZM290.941 249.75C290.941 242.535 287.44 237.692 280.34 237.692H267.269V261.808H280.379C287.44 261.788 290.941 256.946 290.941 249.731V249.75Z" fill="#BBB69B"/>
<path d="M1.22461 298V143.875" stroke="#BBB69B" stroke-width="1.25" stroke-miterlimit="10"/>
<path d="M1.22461 215.21L161.82 285.748" stroke="#BBB69B" stroke-width="1.25" stroke-miterlimit="10"/>
<path d="M161.82 215.444L1.22461 285.748" stroke="#BBB69B" stroke-width="1.25" stroke-miterlimit="10"/>
<path d="M278.026 142.767L239.297 214.821" stroke="#BBB69B" stroke-width="1.25" stroke-miterlimit="10"/>
<path d="M239.297 142.767L278.026 215.444" stroke="#BBB69B" stroke-width="1.25" stroke-miterlimit="10"/>
<path d="M1.22461 71.9962L123.071 143.876" stroke="#BBB69B" stroke-width="1.25" stroke-miterlimit="10"/>
<path d="M123.071 72.5406L1.22461 142.767" stroke="#BBB69B" stroke-width="1.25" stroke-miterlimit="10"/>
<path d="M316.774 1.2251L161.82 71.996" stroke="#BBB69B" stroke-width="1.25" stroke-miterlimit="10"/>
<path d="M161.82 1.20581L316.774 72.5407" stroke="#BBB69B" stroke-width="1.25" stroke-miterlimit="10"/>
</svg>
