<svg width="337" height="317" viewBox="0 0 337 317" fill="none" xmlns="http://www.w3.org/2000/svg">
<g clip-path="url(#clip0_625_8119)">
<path d="M335.701 152.903H1.29883V1.302H335.701V316.699" stroke="#2D457C" stroke-width="1.25" stroke-miterlimit="10"/>
<path d="M1.29883 77.0925H335.701" stroke="#2D457C" stroke-width="1.25" stroke-miterlimit="10"/>
<path d="M335.701 228.714H1.29883" stroke="#2D457C" stroke-width="1.25" stroke-miterlimit="10"/>
<path d="M335.701 303.678H1.29883" stroke="#2D457C" stroke-width="1.25" stroke-miterlimit="10"/>
<path d="M48.3203 1.28149V77.0924" stroke="#2D457C" stroke-width="1.25" stroke-miterlimit="10"/>
<path d="M89.3633 1.28149V76.5137" stroke="#2D457C" stroke-width="1.25" stroke-miterlimit="10"/>
<path d="M171.488 152.903V303.678" stroke="#2D457C" stroke-width="1.25" stroke-miterlimit="10"/>
<path d="M253.596 77.0925V303.678" stroke="#2D457C" stroke-width="1.25" stroke-miterlimit="10"/>
<path d="M130.426 1.302V152.903" stroke="#2D457C" stroke-width="1.25" stroke-miterlimit="10"/>
<path d="M171.488 1.28149V151.725" stroke="#2D457C" stroke-width="1.25" stroke-miterlimit="10"/>
<path d="M38.631 23.0452V59.049H31.3335V35.6941L28.1382 58.7389H23.5C23.5 58.7389 20.284 36.004 20.2428 35.818V59.049H12.9453V23.0452H24.1392L26.0149 40.5718L27.7673 23.0452H38.631Z" fill="#2D457C"/>
<path d="M79.9204 59.0696H72.0663L71.1181 52.2286H65.6757L64.7069 59.049H56.9766L63.4492 23.0244H73.3234L79.9204 59.0696ZM70.1694 45.0772L68.3969 32.201L66.6032 45.0565L70.1694 45.0772Z" fill="#2D457C"/>
<path d="M118.448 23.0659V30.4237H113.851V59.0698H106.286V30.4237H101.668V23.0659H118.448Z" fill="#2D457C"/>
<path d="M162.047 59.0696H154.09L153.904 58.3049C153.348 55.6594 151.08 43.8372 150.936 43.3205C150.936 43.3205 150.936 43.9407 150.936 43.982C150.936 44.0234 150.936 59.0696 150.936 59.0696H143.35C143.35 59.0696 143.35 25.4011 143.35 23.6443V23.0451H150.585C152.065 23.0037 153.545 23.1283 154.997 23.417C156.794 23.8935 158.373 24.9751 159.469 26.4804C160.564 27.9857 161.111 29.823 161.016 31.6843C161.11 33.2924 160.79 34.8978 160.086 36.3457C159.382 37.7937 158.318 39.0354 156.996 39.9516L161.985 58.8423L162.047 59.0696ZM153.348 33.3792C153.348 31.0437 152.605 29.6795 151.142 29.6795H151.019C151.019 31.023 151.019 37.2855 151.019 37.2855H151.142C152.832 37.2855 153.368 35.2187 153.368 33.3792H153.348Z" fill="#2D457C"/>
<path d="M171.488 85.4839V143.355" stroke="#2D457C" stroke-width="1.25" stroke-miterlimit="10"/>
<path d="M212.531 76.5137V152.903" stroke="#2D457C" stroke-width="1.25" stroke-miterlimit="10"/>
<path d="M294.639 76.5137V228.962" stroke="#2D457C" stroke-width="1.25" stroke-miterlimit="10"/>
<path d="M203.234 132.855H195.38L194.432 126.035H188.99L188.021 132.835H180.291L186.764 96.8306H196.638L203.234 132.855ZM193.484 118.863L191.711 106.007L189.918 118.863H193.484Z" fill="#2D457C"/>
<path d="M242.732 132.856H234.775L234.61 132.111C234.032 129.445 231.786 117.643 231.641 117.127V117.788V132.856H224.076C224.076 132.856 224.076 99.2076 224.076 97.4302V96.8514C226.302 96.8514 229.106 96.8514 231.312 96.8514C232.784 96.7919 234.258 96.9099 235.702 97.2028C237.501 97.6788 239.083 98.7596 240.182 100.264C241.281 101.769 241.833 103.607 241.743 105.47C241.833 107.078 241.51 108.681 240.807 110.129C240.103 111.576 239.041 112.818 237.722 113.737L242.711 132.608V132.731L242.732 132.856ZM234.053 107.165C234.053 104.85 233.311 103.465 231.848 103.465H231.703C231.703 104.829 231.703 111.071 231.703 111.071H231.806C233.517 111.071 234.053 109.025 234.053 107.165Z" fill="#2D457C"/>
<path d="M280.475 124.464C280.462 126.223 279.955 127.942 279.011 129.424C278.225 130.631 277.147 131.62 275.878 132.297C274.855 132.847 273.73 133.178 272.574 133.271C271.417 133.363 270.254 133.215 269.158 132.835C267.004 132.053 265.248 130.448 264.272 128.37C263.574 126.519 263.299 124.534 263.468 122.562C263.468 121.219 263.468 105.552 263.468 104.808C263.503 102.906 264.159 101.067 265.335 99.574C266.512 98.0808 268.145 97.0154 269.983 96.5411C270.261 96.4782 270.543 96.4368 270.828 96.4173C271.697 96.3036 272.577 96.3036 273.446 96.4173C275.674 96.8338 277.646 98.1197 278.929 99.9928C279.506 100.825 279.925 101.757 280.166 102.742C280.435 104.102 280.546 105.489 280.495 106.875V110.017H273.178V106.875C273.178 106.441 273.178 106.048 273.178 105.78C273.178 105.118 273.178 104.23 272.415 103.961C272.19 103.883 271.947 103.872 271.716 103.931C271.485 103.99 271.277 104.115 271.116 104.292C270.755 104.916 270.61 105.643 270.704 106.359C270.704 109.128 270.704 120.537 270.704 123.286C270.704 123.803 270.704 125.167 272.023 125.167C272.642 125.167 273.137 124.65 273.137 123.616C273.137 121.922 273.137 118.16 273.137 118.16H280.495V119.297C280.495 119.297 280.537 123.203 280.475 124.464Z" fill="#2D457C"/>
<path d="M324.631 96.8513V132.855H317.086V118.388H313.953V132.855H306.408V96.8513H313.953V110.74H317.086V96.8513H324.631Z" fill="#2D457C"/>
<path d="M325.434 173.902L318.652 191.698L318.508 209.906H311.128V191.698L304.264 173.902H311.726L314.798 184.67L317.683 173.902H325.434Z" fill="#2D457C"/>
<path d="M147.186 132.049V96.0449H154.751V132.049H147.186Z" fill="#2D457C"/>
<path d="M72.5823 203.644C72.5823 212.283 66.7482 218.112 55.7608 218.112H20.7168V165.924H54.9571C65.7589 165.924 71.778 171.877 71.778 180.392C71.8337 182.756 71.1878 185.083 69.9215 187.077C68.6552 189.072 66.8258 190.644 64.6663 191.594C67.0745 192.524 69.1326 194.185 70.5521 196.346C71.9715 198.507 72.6815 201.058 72.5823 203.644ZM34.6107 185.311H54.483C54.8892 185.351 55.2991 185.302 55.6843 185.167C56.0696 185.032 56.4205 184.814 56.713 184.528C57.0055 184.243 57.2326 183.897 57.3778 183.514C57.5231 183.132 57.5835 182.722 57.5545 182.314C57.5866 181.904 57.5288 181.492 57.3849 181.107C57.241 180.722 57.0145 180.374 56.7216 180.086C56.4287 179.798 56.0767 179.579 55.6899 179.442C55.3031 179.306 54.8911 179.256 54.483 179.297H34.6107V185.311ZM58.4201 201.639C58.4549 201.214 58.4007 200.787 58.2601 200.385C58.1195 199.983 57.8959 199.615 57.6043 199.305C57.3127 198.995 56.9592 198.75 56.5671 198.586C56.1749 198.422 55.7528 198.342 55.328 198.353H34.6107V204.946H55.328C55.7538 204.953 56.1764 204.871 56.5686 204.704C56.9608 204.538 57.3141 204.291 57.6053 203.979C57.8966 203.668 58.1192 203.299 58.2596 202.896C58.4 202.493 58.4547 202.064 58.4201 201.639Z" fill="#2D457C"/>
<path d="M156.234 166.007V198.126C156.234 210.526 145.927 219.496 130.405 219.496C114.882 219.496 104.596 210.506 104.596 197.919V166.007H118.51V196.472C118.51 202.176 123.169 205.359 130.405 205.359C137.64 205.359 142.319 202.176 142.319 196.472V166.007H156.234Z" fill="#2D457C"/>
<path d="M204.656 218.215V166.007H218.591V218.215H204.656Z" fill="#2D457C"/>
<path d="M238.155 277.719V291.504H190.166V239.297H204.081V277.719H238.155Z" fill="#2D457C"/>
<path d="M322.137 265.421C322.137 279.599 311.645 291.504 299.276 291.504H269.262V239.297H298.287C308.594 239.297 322.137 248.204 322.137 265.421ZM308.325 265.421C308.325 257.753 304.615 252.607 297.091 252.607H283.238V278.235H297.132C304.615 278.215 308.325 273.068 308.325 265.401V265.421Z" fill="#2D457C"/>
<path d="M1.29883 316.699V152.903" stroke="#2D457C" stroke-width="1.25" stroke-miterlimit="10"/>
<path d="M1.29883 228.714L171.489 303.678" stroke="#2D457C" stroke-width="1.25" stroke-miterlimit="10"/>
<path d="M171.489 228.962L1.29883 303.678" stroke="#2D457C" stroke-width="1.25" stroke-miterlimit="10"/>
<path d="M294.638 151.725L253.596 228.301" stroke="#2D457C" stroke-width="1.25" stroke-miterlimit="10"/>
<path d="M253.596 151.725L294.638 228.962" stroke="#2D457C" stroke-width="1.25" stroke-miterlimit="10"/>
<path d="M1.29883 76.5137L130.426 152.903" stroke="#2D457C" stroke-width="1.25" stroke-miterlimit="10"/>
<path d="M130.426 77.0925L1.29883 151.725" stroke="#2D457C" stroke-width="1.25" stroke-miterlimit="10"/>
<path d="M335.701 1.302L171.488 76.5136" stroke="#2D457C" stroke-width="1.25" stroke-miterlimit="10"/>
<path d="M171.488 1.28149L335.701 77.0924" stroke="#2D457C" stroke-width="1.25" stroke-miterlimit="10"/>
</g>
<defs>
<clipPath id="clip0_625_8119">
<rect width="337" height="316.699" fill="white"/>
</clipPath>
</defs>
</svg>
