<svg width="337" height="163" viewBox="0 0 337 163" fill="none" xmlns="http://www.w3.org/2000/svg">
<path d="M254.354 146.354C254.549 146.158 254.549 145.842 254.354 145.646L251.172 142.464C250.976 142.269 250.66 142.269 250.464 142.464C250.269 142.66 250.269 142.976 250.464 143.172L253.293 146L250.464 148.828C250.269 149.024 250.269 149.34 250.464 149.536C250.66 149.731 250.976 149.731 251.172 149.536L254.354 146.354ZM80 146.5L254 146.5L254 145.5L80 145.5L80 146.5Z" fill="#2D457C"/>
<path d="M68 1L68 162" stroke="#2D457C" stroke-miterlimit="10"/>
<path d="M35 1L35 32.8889" stroke="#2D457C" stroke-miterlimit="10"/>
<path d="M102 1L102 32.8889" stroke="#2D457C" stroke-miterlimit="10"/>
<path d="M169 1L169 32.8889" stroke="#2D457C" stroke-miterlimit="10"/>
<path d="M236 1L236 32.8889" stroke="#2D457C" stroke-miterlimit="10"/>
<path d="M135 1L135.956 130" stroke="#2D457C" stroke-miterlimit="10"/>
<path d="M269 130L68 130" stroke="#2D457C" stroke-miterlimit="10"/>
<path d="M335.701 65.644H269" stroke="#2D457C" stroke-miterlimit="10"/>
<path d="M269 33H2" stroke="#2D457C" stroke-miterlimit="10"/>
<path d="M202 1L202 130" stroke="#2D457C" stroke-miterlimit="10"/>
<path d="M269 1V162" stroke="#2D457C" stroke-miterlimit="10"/>
<path d="M68 33L1 162M1 33L68 162" stroke="#2D457C" stroke-miterlimit="10"/>
<path d="M336.141 1L269 65.5695M269 1L336.141 65.5695" stroke="#2D457C" stroke-miterlimit="10"/>
<path d="M81.1334 12.9987V14.6534H88.0912V18.3763H81.1334V20.3757H92.0179V24.4433H77V9H92.0179V12.9987H81.1334Z" fill="#2D457C"/>
<path d="M162.256 24.4433H157.847L156.469 21.3409H149.718L148.409 24.4433H144L150.82 9H155.642L162.256 24.4433ZM154.885 17.1353L153.162 12.9298L151.44 17.1353H154.885Z" fill="#2D457C"/>
<path d="M196.429 12.9298H189.816V24.4433H185.682V12.9298H179V9H196.36V12.9298H196.429Z" fill="#2D457C"/>
<path d="M55.7445 18.2384L58.5001 24.4433H54.2979L51.8178 18.6521H47.1334V24.4433H43V9H46.1689H53.5401C56.5712 9 58.5001 10.9304 58.5001 13.895C58.5001 16.0322 57.4668 17.549 55.7445 18.2384ZM47.1334 14.8602H53.4023C53.9534 14.8602 54.2979 14.4465 54.2979 13.895C54.2979 13.3434 53.9534 12.9298 53.4023 12.9298H47.1334V14.8602Z" fill="#2D457C"/>
<path d="M216.133 12.9987V14.6533H223.091V18.3763H216.133V20.3757H227.018V24.4433H212V9H227.018V12.9987H216.133Z" fill="#2D457C"/>
<path d="M261.638 16.7217C261.638 20.9272 258.538 24.4433 254.887 24.4433C250.133 24.4433 246 24.4433 246 24.4433V9H254.611C257.642 9 261.638 11.6198 261.638 16.7217ZM257.573 16.7217C257.573 14.4465 256.471 12.9298 254.267 12.9298H250.133V20.5136H254.267C256.471 20.5136 257.573 18.9968 257.573 16.7217Z" fill="#2D457C"/>
<path d="M123.3 64.9008C123.3 79.5876 114.596 87.7331 102.163 87.7331C102.163 91.6825 102.039 118.464 102.039 118.464H86C86 118.464 86 47.8692 86 44.1667C86 42.9325 86 42.9325 86 42.9325C90.7246 42.9325 96.5682 42.9325 101.293 42.9325C104.401 42.9325 107.634 43.0559 110.618 44.0433C120.937 47.9926 123.3 57.7426 123.3 64.9008ZM107.136 64.654C107.136 60.211 105.893 56.8787 102.785 56.8787C102.287 56.8787 102.287 56.8787 102.287 56.8787C102.287 59.7173 102.163 73.2933 102.163 73.2933H102.412C106.142 73.2933 107.136 68.6034 107.136 64.654Z" fill="#2D457C"/>
<path d="M189.165 118.464H172.52L172.152 116.862C170.929 111.318 166.278 86.4279 165.911 85.4421C165.911 85.3189 165.911 86.6743 165.911 86.7975C165.911 86.9207 165.788 118.341 165.788 118.341H150C150 118.341 150 47.8612 150 44.1647C150 42.9325 150 42.9325 150 42.9325C154.651 42.9325 160.403 42.9325 165.054 42.9325C168.114 42.9325 171.173 42.9325 174.233 43.6718C182.188 45.6433 186.839 52.913 186.839 60.7989C186.839 73.2437 178.517 78.0492 178.394 78.0492C178.394 78.0492 188.675 117.232 188.797 117.602L188.92 117.848L189.165 118.464ZM171.051 64.6186C171.051 59.6899 169.46 56.8559 166.4 56.8559C166.278 56.8559 166.155 56.8559 166.155 56.8559C166.155 59.6899 166.033 72.7509 166.033 72.7509C166.033 72.7509 166.033 72.7509 166.278 72.7509C169.949 72.8741 171.051 68.5615 171.051 64.6186Z" fill="#2D457C"/>
<path d="M252.306 66.8475C252.306 71.2987 252.306 89.2272 252.306 93.3075C252.306 97.5114 252.428 101.715 251.452 105.796C249.498 113.709 241.93 119.397 233.873 119.397C225.45 119.397 218.248 113.462 216.539 105.177C215.928 102.581 216.051 99.7371 216.051 97.1405C215.928 90.9583 216.051 67.9603 216.173 62.7672C216.173 62.2726 216.173 61.6544 216.173 61.1598C216.295 56.7086 217.393 52.2574 220.079 48.6717C226.305 40.7584 238.39 39.7692 245.836 46.3224C249.132 49.2899 251.452 53.3702 252.062 57.6978C252.55 60.6652 252.306 63.7564 252.306 66.8475ZM236.559 61.0362C236.559 59.9234 236.315 58.4396 235.46 57.5741C234.606 56.7086 233.019 56.8322 232.164 57.8214C231.188 58.9342 231.188 60.7889 231.065 62.149C230.943 66.4765 230.943 94.9149 230.943 98.6243C230.943 100.108 231.065 101.715 232.286 102.705C233.263 103.446 234.606 103.323 235.46 102.581C236.437 101.715 236.559 99.9844 236.559 98.6243C236.681 94.2967 236.559 63.1381 236.559 61.0362Z" fill="#2D457C"/>
<path d="M319.026 139.235C316.719 145.541 311.254 150.363 304.695 151.228C295.708 152.465 287.693 146.777 285.264 137.875C284.292 134.166 283.685 129.963 284.171 126.13C284.171 126.006 284.292 125.635 284.292 125.635C285.507 125.635 295.83 125.883 298.623 125.883C298.623 125.883 298.623 129.592 298.623 130.952C298.623 132.064 298.866 133.301 299.352 134.414C299.838 135.403 300.566 136.268 301.659 136.268C305.91 136.515 304.938 129.963 304.088 127.366C302.266 122.05 297.894 118.712 294.13 114.879C294.008 114.755 293.887 114.631 293.644 114.384C292.429 113.148 291.093 111.788 290.122 110.428C288.179 107.831 286.478 105.111 285.264 102.144C284.171 99.1767 283.928 95.9621 284.05 92.8711C284.292 87.802 286.114 82.7328 289.757 79.1473C294.13 74.82 300.566 72.9654 306.517 74.5727C310.161 75.5618 313.925 78.0346 316.111 81.2492C317.326 82.9801 318.297 84.711 318.905 86.6892C319.633 89.2856 319.998 92.0057 319.998 94.8494C319.998 96.2094 319.876 99.424 319.876 99.424L305.546 99.3003C305.546 97.3221 305.424 95.3439 305.181 93.3657C304.817 91.3875 304.331 88.5438 301.781 88.7911C300.809 88.9147 300.08 89.6566 299.716 90.522C299.23 91.6348 299.23 92.7475 299.352 93.8603C299.473 96.2094 300.445 98.1876 301.659 100.042C302.266 101.155 303.117 102.144 303.967 103.009C304.695 103.751 305.303 104.617 306.031 105.359C307.489 106.842 308.946 108.326 310.282 109.933C312.225 112.035 314.168 114.261 315.868 116.733C320.241 122.915 321.698 131.941 319.026 139.235Z" fill="#2D457C"/>
<rect x="1" y="1" width="335" height="161" stroke="#2D457C"/>
<path d="M116.214 19.952V8.622H112.122V24H126.29V19.952H116.214Z" fill="#2D457C"/>
</svg>
