<svg width="346" height="108" viewBox="0 0 346 108" fill="none" xmlns="http://www.w3.org/2000/svg">
<rect x="1" y="1.00004" width="344" height="106" stroke="#2D457C"/>
<path d="M207.258 47.848L207.22 47.734C207.22 47.62 203.534 33.788 203.534 33.788C203.534 33.788 206.536 32.116 206.536 27.746C206.536 24.972 204.864 22.388 202.052 21.704C200.988 21.438 199.886 21.438 198.784 21.438C197.15 21.438 195.098 21.438 193.464 21.438C193.464 21.438 193.426 21.438 193.464 21.856C193.464 23.186 193.464 48 193.464 48H199.05C199.05 48 199.088 36.942 199.088 36.904C199.126 36.866 199.088 36.372 199.088 36.41C199.202 36.714 200.874 45.492 201.292 47.468L201.444 48H207.334L207.258 47.848ZM199.202 31.926C199.126 31.926 199.126 31.926 199.126 31.926C199.126 31.926 199.164 27.328 199.164 26.302C199.164 26.302 199.202 26.302 199.24 26.302C200.342 26.302 200.874 27.328 200.874 29.038C200.874 30.406 200.494 31.926 199.202 31.926ZM215.256 42.566C215.256 41.312 215.256 38.994 215.256 37.74C215.256 37.664 215.256 37.512 215.256 37.36V37.094H220.082V31.964H215.256C215.256 30.634 215.294 26.872 215.294 26.872H220.31V21.438H209.67V48H220.272V47.81C220.272 47.772 220.272 47.772 220.272 47.734C220.272 47.696 220.272 47.658 220.272 47.62C220.272 46.29 220.272 45.112 220.272 43.82C220.272 43.782 220.272 43.744 220.272 43.706V42.566H215.256ZM228.754 42.49V21.438H223.168V48H227.88H233.2V42.49H228.754ZM246.608 21.438H239.312L234.524 48H240.224L240.946 42.984H244.974L245.696 48H251.472L246.608 21.438ZM241.63 37.702L242.96 28.202L244.29 37.702H241.63ZM259.698 21.438H254.074H250.692V26.872H254.074V48.038H259.698V26.872H263.08V21.438H259.698ZM270.767 42.566C270.767 41.312 270.767 38.994 270.767 37.74C270.767 37.664 270.767 37.512 270.767 37.36V37.094H275.593V31.964H270.767C270.767 30.634 270.805 26.872 270.805 26.872H275.821V21.438H265.181V48H275.783V47.81C275.783 47.772 275.783 47.772 275.783 47.734C275.783 47.696 275.783 47.658 275.783 47.62C275.783 46.29 275.783 45.112 275.783 43.82C275.783 43.782 275.783 43.744 275.783 43.706V42.566H270.767ZM291.675 29.684C291.675 29.38 291.637 29.076 291.637 28.81C291.523 27.328 291.561 25.694 290.801 24.364C289.737 22.54 288.141 21.476 285.975 21.438C285.025 21.438 278.907 21.438 278.679 21.438C278.679 21.438 278.679 47.696 278.679 48C278.679 48 280.503 48 281.263 48C282.061 48 285.139 48 285.937 48C289.471 48.114 291.485 44.808 291.599 41.616C291.637 39.412 291.675 37.208 291.637 35.004C291.637 34.852 291.675 30.33 291.675 29.684ZM285.975 29.228C285.975 29.304 285.975 38.69 285.975 40.096C285.975 40.78 286.051 42.072 285.025 42.148C284.835 42.148 284.645 42.148 284.493 42.148C284.341 42.148 284.265 42.148 284.265 42.148C284.265 40.628 284.303 29.228 284.303 27.404C284.303 27.328 284.303 27.024 284.303 27.024C284.835 27.024 285.253 26.948 285.595 27.252C286.013 27.67 285.975 28.088 285.975 29.228ZM198.959 57.438H191.663L186.875 84H192.575L193.297 78.984H197.325L198.047 84H203.823L198.959 57.438ZM193.981 73.702L195.311 64.202L196.641 73.702H193.981ZM219.721 83.848L219.683 83.734C219.683 83.62 215.997 69.788 215.997 69.788C215.997 69.788 218.999 68.116 218.999 63.746C218.999 60.972 217.327 58.388 214.515 57.704C213.451 57.438 212.349 57.438 211.247 57.438C209.613 57.438 207.561 57.438 205.927 57.438C205.927 57.438 205.889 57.438 205.927 57.856C205.927 59.186 205.927 84 205.927 84H211.513C211.513 84 211.551 72.942 211.551 72.904C211.589 72.866 211.551 72.372 211.551 72.41C211.665 72.714 213.337 81.492 213.755 83.468L213.907 84H219.797L219.721 83.848ZM211.665 67.926C211.589 67.926 211.589 67.926 211.589 67.926C211.589 67.926 211.627 63.328 211.627 62.302C211.627 62.302 211.665 62.302 211.703 62.302C212.805 62.302 213.337 63.328 213.337 65.038C213.337 66.406 212.957 67.926 211.665 67.926ZM230 57.438H224.376H220.994V62.872H224.376V84.038H230V62.872H233.382V57.438H230ZM241.069 84V57.438H235.483V84H241.069ZM256.692 74.158V73.322C256.692 73.322 253.424 73.322 252.132 73.322H251.258C251.258 73.322 251.182 76.096 251.182 77.35C251.182 78.11 250.802 78.49 250.346 78.49C249.434 78.49 249.396 77.464 249.396 77.084C249.396 75.07 249.396 66.634 249.434 64.582C249.434 64.088 249.396 63.48 249.738 63.062C249.966 62.796 250.346 62.72 250.688 62.834C251.258 63.024 251.258 63.67 251.258 64.164C251.258 64.354 251.258 64.658 251.258 64.962V67.28H256.692V64.962H256.654C256.692 63.936 256.654 62.872 256.426 61.846C256.236 61.124 255.932 60.44 255.514 59.832C254.564 58.464 253.12 57.476 251.448 57.21C250.802 57.096 250.156 57.096 249.51 57.172C249.282 57.172 249.092 57.21 248.902 57.248C246.128 57.856 244.152 60.554 244.076 63.29C244.076 63.86 244.038 75.412 244.076 76.4C244.076 77.92 244 79.326 244.646 80.694C245.368 82.252 246.66 83.43 248.256 84C249.89 84.57 251.714 84.418 253.234 83.62C254.184 83.088 254.982 82.404 255.552 81.492C256.274 80.39 256.578 79.136 256.654 77.844C256.692 76.894 256.692 74.158 256.692 74.158ZM265.058 78.49V57.438H259.472V84H264.184H269.504V78.49H265.058ZM277.071 78.566C277.071 77.312 277.071 74.994 277.071 73.74C277.071 73.664 277.071 73.512 277.071 73.36V73.094H281.897V67.964H277.071C277.071 66.634 277.109 62.872 277.109 62.872H282.125V57.438H271.485V84H282.087V83.81C282.087 83.772 282.087 83.772 282.087 83.734C282.087 83.696 282.087 83.658 282.087 83.62C282.087 82.29 282.087 81.112 282.087 79.82C282.087 79.782 282.087 79.744 282.087 79.706V78.566H277.071ZM295.85 72.144C295.28 71.308 294.558 70.51 293.874 69.788C293.342 69.218 292.81 68.724 292.316 68.154C292.05 67.888 291.822 67.622 291.556 67.356C291.252 67.014 290.948 66.71 290.72 66.292C290.302 65.646 289.96 64.924 289.884 64.126C289.884 63.708 289.884 63.328 290.036 62.948C290.15 62.644 290.416 62.378 290.758 62.34C291.67 62.226 291.86 63.252 291.974 63.936C292.088 64.62 292.126 65.342 292.126 66.026L297.256 66.064C297.256 66.064 297.294 64.924 297.294 64.468C297.294 63.48 297.18 62.53 296.914 61.58C296.686 60.896 296.344 60.25 295.926 59.68C295.128 58.54 293.798 57.704 292.468 57.324C290.34 56.754 288.06 57.4 286.464 58.92C285.172 60.212 284.526 61.96 284.412 63.746C284.336 64.848 284.45 65.988 284.83 67.014C285.248 68.078 285.894 69.028 286.578 69.94C286.92 70.434 287.376 70.89 287.832 71.308C287.87 71.384 287.946 71.422 287.984 71.498C289.314 72.828 290.91 74.044 291.556 75.906C291.898 76.818 292.24 79.136 290.72 79.022C290.302 79.022 290.036 78.718 289.846 78.376C289.694 77.996 289.656 77.578 289.618 77.16C289.58 76.666 289.618 75.374 289.618 75.374C288.592 75.374 284.906 75.298 284.488 75.298C284.488 75.298 284.45 75.412 284.45 75.488C284.298 76.818 284.488 78.3 284.868 79.63C285.704 82.708 288.592 84.722 291.822 84.304C294.178 83.962 296.154 82.29 296.952 80.086C297.902 77.54 297.37 74.386 295.85 72.144Z" fill="#2D457C"/>
<line x1="151.5" y1="107.152" x2="151.5" y2="1.45953" stroke="#2D457C"/>
<path d="M1.31338 106.797L150.687 1.45957" stroke="#2D457C"/>
<path d="M151.5 107.152L2.07806 1.3454" stroke="#2D457C"/>
</svg>
