<svg width="325" height="485" viewBox="0 0 325 485" fill="none" xmlns="http://www.w3.org/2000/svg">
<rect x="324" y="484" width="323" height="32" transform="rotate(180 324 484)" stroke="#2D457C"/>
<path d="M307.354 468.354C307.549 468.158 307.549 467.842 307.354 467.646L304.172 464.464C303.976 464.269 303.66 464.269 303.464 464.464C303.269 464.66 303.269 464.976 303.464 465.172L306.293 468L303.464 470.828C303.269 471.024 303.269 471.34 303.464 471.536C303.66 471.731 303.976 471.731 304.172 471.536L307.354 468.354ZM17 468.5L307 468.5L307 467.5L17 467.5L17 468.5Z" fill="#2D457C"/>
<path d="M27.3116 76.8056V80.0644H41.0151V87.3968H27.3116V91.3346H48.7488V99.3459H19.1709V68.9301H48.7488V76.8056H27.3116Z" fill="#2D457C"/>
<path d="M51.8693 213.416H43.1859L40.4723 207.306H27.1759L24.598 213.416H15.9146L29.3467 183H38.8442L51.8693 213.416ZM37.3517 199.023L33.9598 190.74L30.5678 199.023H37.3517Z" fill="#2D457C"/>
<path d="M51.0552 247.276H38.03V269.952H29.8893V247.276H16.7285V239.536H50.9195V247.276H51.0552Z" fill="#2D457C"/>
<path d="M43.7284 31.1952L49.1556 43.4158H40.8792L35.9948 32.0099H26.7686V43.4158H18.6279V13H24.8691H39.3867C45.3566 13 49.1556 16.802 49.1556 22.6407C49.1556 26.8501 47.1204 29.8373 43.7284 31.1952ZM26.7686 24.5417H39.1154C40.2008 24.5417 40.8792 23.727 40.8792 22.6407C40.8792 21.5545 40.2008 20.7397 39.1154 20.7397H26.7686V24.5417Z" fill="#2D457C"/>
<path d="M27.3116 304.876V308.134H41.0151V315.467H27.3116V319.405H48.7488V327.416H19.1709V297H48.7488V304.876H27.3116Z" fill="#2D457C"/>
<path d="M49.2914 367.88C49.2914 376.163 43.1859 383.088 35.9949 383.088C26.6331 383.088 18.4924 383.088 18.4924 383.088V352.672H35.4522C41.4221 352.672 49.2914 357.832 49.2914 367.88ZM41.2864 367.88C41.2864 363.399 39.1155 360.412 34.7738 360.412H26.6331V375.348H34.7738C39.1155 375.348 41.2864 372.361 41.2864 367.88Z" fill="#2D457C"/>
<path d="M119.437 152.563C119.437 168.721 109.94 177.683 96.3718 177.683C96.3718 182.028 96.2362 211.494 96.2362 211.494H78.7336C78.7336 211.494 78.7336 133.825 78.7336 129.751C78.7336 128.393 78.7336 128.393 78.7336 128.393C83.8894 128.393 90.2663 128.393 95.4221 128.393C98.8141 128.393 102.342 128.529 105.598 129.615C116.859 133.96 119.437 144.687 119.437 152.563ZM101.799 152.291C101.799 147.403 100.442 143.737 97.0502 143.737C96.5075 143.737 96.5075 143.737 96.5075 143.737C96.5075 146.86 96.3718 161.796 96.3718 161.796H96.6432C100.714 161.796 101.799 156.637 101.799 152.291Z" fill="#2D457C"/>
<path d="M185.513 211.629H167.06L166.653 209.864C165.296 203.754 160.141 176.325 159.734 175.239C159.734 175.103 159.734 176.597 159.734 176.733C159.734 176.869 159.598 211.494 159.598 211.494H142.095C142.095 211.494 142.095 133.825 142.095 129.751C142.095 128.393 142.095 128.393 142.095 128.393C147.251 128.393 153.628 128.393 158.784 128.393C162.176 128.393 165.568 128.393 168.96 129.208C177.779 131.381 182.935 139.392 182.935 148.082C182.935 161.796 173.709 167.092 173.573 167.092C173.573 167.092 184.97 210.272 185.106 210.679L185.241 210.951L185.513 211.629ZM165.432 152.291C165.432 146.86 163.668 143.737 160.276 143.737C160.141 143.737 160.005 143.737 160.005 143.737C160.005 146.86 159.869 161.253 159.869 161.253C159.869 161.253 159.869 161.253 160.141 161.253C164.211 161.389 165.432 156.637 165.432 152.291Z" fill="#2D457C"/>
<path d="M247.382 154.871C247.382 159.76 247.382 179.448 247.382 183.929C247.382 188.546 247.518 193.163 246.432 197.644C244.261 206.334 235.849 212.58 226.895 212.58C217.533 212.58 209.528 206.062 207.628 196.965C206.95 194.113 207.085 190.99 207.085 188.139C206.95 181.349 207.085 156.093 207.221 150.39C207.221 149.847 207.221 149.168 207.221 148.625C207.357 143.737 208.578 138.849 211.563 134.911C218.483 126.221 231.915 125.134 240.191 132.331C243.854 135.59 246.432 140.071 247.111 144.823C247.653 148.082 247.382 151.477 247.382 154.871ZM229.88 148.489C229.88 147.267 229.608 145.638 228.658 144.687C227.709 143.737 225.945 143.873 224.995 144.959C223.91 146.181 223.91 148.218 223.774 149.712C223.638 154.464 223.638 185.695 223.638 189.768C223.638 191.397 223.774 193.163 225.131 194.249C226.216 195.064 227.709 194.928 228.658 194.113C229.744 193.163 229.88 191.262 229.88 189.768C230.015 185.016 229.88 150.798 229.88 148.489Z" fill="#2D457C"/>
<path d="M246.025 312.345C243.447 319.27 237.342 324.566 230.015 325.516C219.975 326.874 211.02 320.628 208.307 310.851C207.221 306.778 206.543 302.161 207.086 297.952C207.086 297.816 207.221 297.409 207.221 297.409C208.578 297.409 220.111 297.68 223.231 297.68C223.231 297.68 223.231 301.754 223.231 303.247C223.231 304.469 223.503 305.827 224.045 307.049C224.588 308.136 225.402 309.086 226.623 309.086C231.372 309.358 230.287 302.161 229.337 299.31C227.302 293.471 222.417 289.805 218.211 285.595C218.076 285.46 217.94 285.324 217.668 285.052C216.312 283.694 214.819 282.201 213.734 280.707C211.563 277.856 209.663 274.868 208.307 271.609C207.086 268.351 206.814 264.82 206.95 261.426C207.221 255.858 209.256 250.291 213.327 246.353C218.211 241.601 225.402 239.564 232.05 241.329C236.121 242.416 240.327 245.131 242.769 248.662C244.126 250.563 245.211 252.464 245.89 254.636C246.704 257.488 247.111 260.475 247.111 263.598C247.111 265.092 246.975 268.622 246.975 268.622L230.965 268.486C230.965 266.314 230.829 264.141 230.558 261.969C230.151 259.796 229.608 256.673 226.759 256.945C225.674 257.08 224.859 257.895 224.452 258.846C223.91 260.068 223.91 261.29 224.045 262.512C224.181 265.092 225.266 267.264 226.623 269.301C227.302 270.523 228.251 271.609 229.201 272.56C230.015 273.375 230.694 274.325 231.508 275.14C233.136 276.769 234.764 278.399 236.256 280.164C238.427 282.472 240.598 284.916 242.498 287.632C247.382 294.421 249.01 304.334 246.025 312.345Z" fill="#2D457C"/>
<path d="M1 1L1.00002 451.878" stroke="#2D457C" stroke-miterlimit="10"/>
<path d="M65.9287 1L65.9287 451.878" stroke="#2D457C" stroke-miterlimit="10"/>
<path d="M130.664 1L130.664 451.878" stroke="#2D457C" stroke-miterlimit="10"/>
<path d="M323.643 112.3H1" stroke="#2D457C" stroke-miterlimit="10"/>
<path d="M323.643 1H1" stroke="#2D457C" stroke-miterlimit="10"/>
<path d="M323.643 226.393H1" stroke="#2D457C" stroke-miterlimit="10"/>
<path d="M323.643 339.094H1" stroke="#2D457C" stroke-miterlimit="10"/>
<path d="M65.5728 395.31H1.26123" stroke="#2D457C" stroke-miterlimit="10"/>
<path d="M65.5728 282.744H1.26123" stroke="#2D457C" stroke-miterlimit="10"/>
<path d="M65.5728 170.178H1.26123" stroke="#2D457C" stroke-miterlimit="10"/>
<path d="M66.1155 56.65H1.66821" stroke="#2D457C" stroke-miterlimit="10"/>
<path d="M323.643 452H1" stroke="#2D457C" stroke-miterlimit="10"/>
<path d="M195.4 1L195.4 451.878" stroke="#2D457C" stroke-miterlimit="10"/>
<path d="M259 1V452" stroke="#2D457C" stroke-miterlimit="10"/>
<path d="M324 1L324 452" stroke="#2D457C" stroke-miterlimit="10"/>
<path d="M259 1L195.4 112.3M195.4 1L259 112.3" stroke="#2D457C" stroke-miterlimit="10"/>
<path d="M195.4 339.443L130.664 450.743M130.664 339.443L195.4 450.743" stroke="#2D457C" stroke-miterlimit="10"/>
<path d="M323.736 227L259 339.436M259 227L323.736 339.436" stroke="#2D457C" stroke-miterlimit="10"/>
<path d="M28.3569 148.959V126.454H20.2287V157H48.3715V148.959H28.3569Z" fill="#2D457C"/>
</svg>
