<?xml version="1.0" standalone="no"?>
<!DOCTYPE svg PUBLIC "-//W3C//DTD SVG 20010904//EN"
 "http://www.w3.org/TR/2001/REC-SVG-20010904/DTD/svg10.dtd">
<svg version="1.0" xmlns="http://www.w3.org/2000/svg"
 width="512.000000pt" height="512.000000pt" viewBox="0 0 512.000000 512.000000"
 preserveAspectRatio="xMidYMid meet">
<metadata>
Created by potrace 1.14, written by Peter Selinger 2001-2017
</metadata>
<g transform="translate(0.000000,512.000000) scale(0.100000,-0.100000)"
fill="#000000" stroke="none">
<path d="M0 2560 l0 -2560 2560 0 2560 0 0 2560 0 2560 -2560 0 -2560 0 0
-2560z m4200 2145 c10 -12 6 -24 -27 -67 -363 -481 -3258 -4234 -3267 -4236
-19 -4 -39 24 -29 41 32 53 3290 4277 3299 4277 6 0 17 -7 24 -15z m-2780
-441 c0 -22 71 -701 75 -709 2 -5 4 4 5 20 1 17 16 179 33 360 l32 330 218 3
217 2 0 -765 0 -765 -145 0 -145 0 0 477 c0 262 -2 474 -4 472 -3 -2 -30 -198
-61 -434 -30 -237 -58 -445 -61 -462 l-6 -33 -94 0 c-69 0 -94 3 -94 13 0 26
-122 922 -126 926 -2 2 -4 -212 -4 -477 l0 -482 -145 0 -145 0 0 765 0 765
225 0 c124 0 225 -3 225 -6z m2811 -1832 c173 -58 271 -190 273 -367 1 -114
-22 -174 -93 -245 -31 -32 -65 -63 -76 -69 -12 -8 -16 -14 -8 -17 43 -19 106
-73 136 -117 65 -95 83 -212 52 -332 -28 -107 -88 -181 -189 -232 -110 -56
-108 -56 -698 -60 l-548 -4 0 736 0 736 543 -3 c528 -3 544 -4 608 -26z"/>
<path d="M3470 2005 l0 -85 299 0 300 0 20 26 c24 30 27 80 7 106 -25 34 -64
38 -347 38 l-279 0 0 -85z"/>
<path d="M3470 1460 l0 -90 309 0 310 0 20 26 c30 38 28 98 -4 129 l-24 25
-306 0 -305 0 0 -90z"/>
</g>
</svg>
